<?xml version="1.0" standalone="no"?>
<!DOCTYPE svg PUBLIC "-//W3C//DTD SVG 20010904//EN"
 "http://www.w3.org/TR/2001/REC-SVG-20010904/DTD/svg10.dtd">
<svg version="1.0" xmlns="http://www.w3.org/2000/svg"
 width="1740.000000pt" height="2320.000000pt" viewBox="0 0 1740.000000 2320.000000"
 preserveAspectRatio="xMidYMid meet">
<metadata>
Created by potrace 1.16, written by Peter Selinger 2001-2019
</metadata>
<g transform="translate(0.000000,2320.000000) scale(0.100000,-0.100000)"
fill="#000000" stroke="none">
<path d="M0 14504 c0 -7729 2 -8695 15 -8684 8 7 15 16 15 21 0 10 18 34 80
103 25 28 54 67 64 86 11 19 49 68 84 108 l64 72 -1 91 c-2 77 2 102 25 163
15 39 35 82 44 96 18 28 50 94 50 105 0 7 27 43 89 116 39 45 248 186 360 242
35 17 48 25 127 78 21 15 73 60 116 100 113 109 220 189 253 189 7 0 17 5 20
10 3 6 19 10 35 10 40 0 99 34 199 115 47 38 118 86 157 106 38 20 79 41 90
47 10 5 39 16 64 23 25 7 49 16 54 21 6 4 22 8 37 8 15 0 31 4 34 10 3 5 17
10 30 10 13 0 27 5 30 10 3 6 19 10 35 10 16 0 32 5 35 10 3 6 30 10 60 10 30
0 57 5 60 10 3 5 46 10 94 10 86 0 90 1 187 51 150 78 153 80 159 89 3 5 21
17 40 26 19 9 35 20 35 25 0 5 9 9 20 9 11 0 20 5 20 10 0 6 6 10 13 10 7 0
23 9 35 20 12 11 25 20 30 20 5 0 19 11 32 25 37 39 78 55 143 55 85 0 157 26
302 109 28 16 58 30 68 30 9 1 25 5 35 10 9 5 43 21 74 37 52 25 104 74 149
142 24 35 67 53 124 52 27 -1 57 -1 66 -1 21 1 208 191 227 231 9 18 29 46 46
62 17 17 42 54 56 81 28 56 67 85 117 86 17 1 35 6 38 11 3 6 21 10 40 10 19
0 37 4 40 10 3 6 28 10 55 10 31 0 63 8 85 20 20 11 44 20 55 20 10 0 22 5 25
10 3 6 16 10 28 10 12 0 33 9 47 20 14 11 28 20 32 20 3 0 24 17 45 38 33 34
101 86 152 117 9 6 27 17 41 26 14 9 48 19 75 22 179 17 266 49 374 136 35 29
89 65 120 81 108 55 194 178 236 334 25 96 68 194 107 245 11 15 18 41 18 70
1 112 61 283 133 379 60 79 113 102 62 27 -14 -21 -25 -45 -25 -54 0 -39 41
-144 76 -197 103 -155 263 -258 809 -519 66 -32 149 -79 185 -105 36 -26 90
-61 120 -77 30 -16 80 -45 110 -64 30 -19 67 -41 81 -48 14 -7 50 -31 78 -52
29 -22 120 -74 202 -115 82 -41 149 -79 149 -84 0 -5 24 -20 53 -33 123 -57
212 -88 144 -51 -15 8 -27 21 -27 30 0 8 -13 17 -30 20 -16 4 -35 13 -41 20
-6 8 -25 14 -41 14 -20 0 -39 10 -58 30 -15 17 -36 30 -47 30 -10 0 -29 9 -43
20 -14 11 -32 20 -40 20 -28 2 -144 69 -290 169 -30 21 -131 80 -171 101 -16
9 -36 26 -45 38 -8 12 -32 29 -52 38 -20 8 -39 18 -42 22 -3 5 -22 18 -42 31
-21 12 -38 27 -38 32 0 5 -5 9 -11 9 -25 0 -128 43 -148 61 -11 10 -28 19 -37
19 -9 0 -39 13 -66 30 -26 17 -53 30 -58 30 -6 0 -10 4 -10 9 0 5 -14 12 -30
16 -17 4 -43 18 -57 31 -14 13 -34 24 -44 24 -10 0 -29 11 -43 25 -14 14 -36
25 -49 25 -15 0 -34 11 -48 29 -14 17 -29 27 -40 24 -9 -3 -20 0 -23 6 -4 6
-2 11 3 11 6 0 11 5 11 11 0 6 -7 9 -15 5 -18 -6 -69 39 -60 53 3 7 0 8 -9 5
-10 -4 -20 6 -31 32 -8 20 -18 34 -22 31 -3 -4 -12 -2 -20 4 -9 8 -13 8 -13 1
0 -6 10 -14 22 -18 19 -6 20 -7 4 -16 -34 -19 -76 74 -50 109 7 10 14 30 14
46 0 15 5 27 10 27 6 0 10 20 10 45 0 32 6 51 20 65 11 11 20 26 20 34 0 8 9
18 20 21 13 4 20 15 20 31 0 20 4 24 23 21 12 -2 29 -7 37 -10 26 -12 84 -14
97 -4 9 6 16 1 24 -17 8 -17 20 -26 34 -26 13 0 28 -7 35 -15 15 -17 37 -20
42 -4 4 12 58 1 58 -12 0 -5 9 -9 20 -9 10 0 23 -7 28 -17 6 -9 16 -14 25 -10
11 4 14 2 11 -7 -3 -9 7 -20 26 -30 30 -15 32 -14 37 4 6 21 33 16 33 -6 0
-17 17 -18 24 -1 3 9 9 7 19 -5 8 -10 22 -18 31 -18 16 0 16 -2 2 -15 -9 -9
-12 -23 -8 -33 6 -16 7 -16 10 1 5 24 25 16 33 -14 4 -13 7 -19 8 -14 2 16 51
15 51 -1 0 -8 6 -11 17 -7 10 4 14 2 10 -4 -11 -18 38 -37 70 -26 32 10 73 6
73 -8 0 -5 -4 -9 -10 -9 -5 0 -10 -15 -10 -32 l1 -33 24 30 c21 25 27 27 35
15 7 -11 4 -17 -10 -22 -11 -4 -20 -11 -20 -15 0 -9 42 -28 82 -37 14 -3 29
-14 31 -24 4 -16 5 -16 6 1 1 20 17 23 24 5 4 -10 6 -10 6 0 1 6 8 12 16 12
14 0 19 -12 16 -32 0 -5 14 -8 33 -8 19 0 38 -4 41 -10 4 -6 -7 -10 -27 -10
-25 0 -29 -3 -18 -10 21 -14 60 -12 60 3 0 8 3 9 8 1 4 -6 17 -17 30 -23 16
-9 21 -18 17 -29 -4 -9 -9 -22 -12 -29 -3 -7 9 -13 34 -15 24 -2 37 -8 35 -16
-1 -7 9 -18 23 -24 19 -8 22 -14 13 -20 -10 -6 -10 -10 2 -18 11 -7 16 -4 20
12 5 19 7 19 19 5 7 -9 10 -21 6 -27 -3 -6 3 -10 16 -10 18 0 19 2 9 15 -10
12 -10 15 3 15 8 0 20 -7 27 -15 7 -8 8 -15 3 -15 -21 0 -10 -38 14 -49 24
-11 25 -13 9 -30 -17 -18 -16 -20 2 -25 10 -4 27 -4 36 0 13 5 15 1 9 -27 -6
-29 -4 -32 15 -27 12 4 20 3 17 -2 -5 -8 47 -22 54 -14 2 2 -2 10 -9 19 -14
17 -8 31 9 20 6 -3 9 -11 6 -16 -4 -5 -1 -9 4 -9 6 0 12 -12 12 -27 1 -17 3
-21 6 -10 5 21 23 23 23 2 0 -32 100 -57 100 -25 1 12 3 11 14 -3 10 -13 15
-14 18 -6 3 10 6 10 12 1 4 -7 -3 -14 -19 -18 -14 -3 -25 -9 -25 -13 0 -9 59
-7 83 4 12 5 17 3 17 -9 0 -12 6 -15 25 -10 58 15 164 1 178 -22 6 -10 13 -11
26 -4 10 5 21 7 23 4 3 -3 26 -6 52 -8 39 -2 46 0 46 16 0 10 7 18 15 18 13 0
14 -4 5 -20 -8 -15 -8 -21 2 -25 23 -7 75 0 91 13 9 8 24 12 34 11 10 -1 27 2
37 6 13 6 23 3 31 -9 9 -12 22 -15 47 -11 19 3 45 2 58 -3 18 -7 29 -4 44 9
19 18 59 20 85 5 15 -10 31 9 31 37 0 9 3 17 8 17 13 0 39 -35 34 -48 -2 -7 3
-12 11 -12 9 0 14 10 13 30 -1 22 -6 30 -19 30 -10 0 -16 4 -13 9 9 13 59 10
81 -5 29 -20 35 -17 35 15 0 18 8 35 20 44 11 8 17 17 13 20 -3 4 -1 7 5 7 7
0 12 -14 12 -31 0 -21 -4 -28 -12 -23 -10 6 -10 4 -2 -7 7 -8 15 -28 18 -46 6
-28 4 -33 -20 -46 -20 -10 -24 -16 -14 -22 9 -5 15 -4 18 3 5 15 32 16 32 2 0
-5 -7 -10 -15 -10 -19 0 -19 -14 0 -30 8 -7 15 -16 15 -21 0 -5 -7 -9 -15 -9
-8 0 -15 -7 -15 -15 0 -8 5 -15 11 -15 14 0 48 41 49 58 0 14 20 17 20 2 0 -5
9 -10 21 -10 15 0 19 -5 15 -15 -3 -9 0 -15 9 -15 8 0 15 7 15 15 0 8 5 15 11
15 6 0 8 -9 3 -22 -6 -19 -5 -20 8 -8 8 8 21 30 29 48 15 36 33 41 48 15 6
-10 11 -14 11 -9 0 5 7 3 15 -4 9 -8 15 -8 15 -2 0 6 -6 13 -12 15 -10 4 -10
8 0 15 8 5 13 12 13 16 -3 18 0 24 14 30 8 3 14 2 14 -2 -1 -4 -1 -14 0 -22 1
-13 2 -13 11 0 5 8 10 10 10 4 0 -6 -9 -19 -20 -29 -24 -21 -26 -45 -5 -45 9
0 15 9 15 22 0 12 3 18 7 15 5 -6 7 -38 4 -92 -1 -8 -7 -12 -16 -9 -12 5 -15
-3 -15 -36 0 -33 -6 -48 -30 -72 -16 -16 -30 -24 -30 -18 0 6 -4 9 -9 6 -5 -3
-7 -14 -4 -24 2 -10 -3 -24 -11 -31 -21 -17 -20 -28 2 -34 14 -4 13 -5 -4 -6
-17 -1 -20 -6 -17 -25 4 -22 1 -25 -28 -28 -19 -2 -33 -9 -35 -18 -6 -38 -25
-70 -42 -70 -10 0 -34 -22 -55 -49 -35 -48 -36 -50 -14 -53 17 -2 22 -9 20
-31 -1 -17 3 -27 12 -27 9 0 12 6 9 15 -4 8 -1 15 5 15 20 0 25 -32 8 -42 -10
-5 -17 -15 -17 -22 0 -16 -22 -26 -55 -26 -32 0 -41 -17 -21 -39 9 -10 16 -29
16 -42 -1 -59 13 -129 26 -129 8 0 14 -4 14 -10 0 -5 -7 -7 -15 -4 -20 8 -20
-20 0 -40 17 -17 12 -79 -7 -103 -6 -7 -7 -24 -4 -37 4 -17 1 -28 -10 -34 -11
-6 -13 -11 -5 -16 16 -10 14 -36 -4 -36 -8 0 -19 -9 -25 -19 -13 -26 -13 -31
5 -31 21 0 18 -11 -10 -39 -14 -13 -25 -29 -25 -37 0 -7 -12 -21 -27 -31 -36
-23 -53 -39 -53 -50 0 -5 -14 -22 -31 -39 -17 -16 -54 -58 -82 -94 -65 -85
-104 -122 -112 -110 -16 25 -22 7 -7 -20 l17 -30 23 27 c13 16 40 51 61 78 63
83 175 198 229 235 30 20 53 45 57 60 13 50 79 196 101 220 28 32 207 297 228
338 9 17 16 38 16 47 0 9 11 40 24 68 13 29 27 70 31 92 4 22 18 66 31 97 39
92 75 209 84 268 4 30 21 102 38 160 16 58 35 128 42 155 6 28 16 64 20 80 19
67 23 208 7 275 -26 104 -25 125 2 111 10 -6 36 -54 59 -108 52 -125 87 -301
77 -387 -6 -52 -2 -94 21 -214 3 -13 16 -27 32 -33 15 -6 34 -17 43 -25 9 -8
53 -30 98 -48 44 -19 95 -46 112 -60 l31 -26 214 0 c237 0 260 -5 289 -60 21
-41 51 -58 115 -66 40 -4 66 -2 94 10 33 14 88 16 367 16 208 0 330 -4 334
-10 10 -17 89 -11 133 10 37 18 61 20 261 20 136 0 222 -4 226 -10 3 -6 44
-10 91 -10 49 0 84 -4 84 -10 0 -5 18 -10 39 -10 22 0 43 -4 46 -10 3 -5 19
-10 35 -10 16 0 45 -9 65 -20 20 -11 47 -20 60 -20 14 0 33 -4 43 -9 16 -9 35
-16 57 -21 6 -1 21 -8 35 -15 14 -7 36 -17 50 -22 14 -6 45 -20 68 -32 24 -11
50 -21 57 -21 15 0 114 -51 155 -80 15 -11 32 -20 37 -20 15 0 138 -123 171
-172 18 -26 42 -54 54 -62 12 -9 95 -88 184 -177 150 -148 200 -190 247 -205
9 -4 17 -10 17 -15 0 -5 6 -9 14 -9 21 0 128 -109 176 -181 24 -35 46 -66 49
-69 3 -3 11 -16 17 -30 28 -61 59 -125 64 -130 3 -3 11 -23 18 -45 24 -71 52
-126 93 -180 21 -28 39 -57 39 -63 0 -5 4 -12 9 -14 11 -4 191 -275 191 -288
0 -6 3 -10 8 -10 4 0 13 -14 21 -31 8 -18 31 -60 52 -95 22 -35 39 -67 39 -72
0 -4 8 -17 18 -28 15 -17 45 -69 76 -131 6 -13 14 -23 19 -23 4 0 7 -6 7 -14
0 -7 7 -19 15 -26 9 -7 23 -29 32 -49 9 -20 29 -55 45 -78 15 -23 28 -46 28
-51 0 -5 8 -16 19 -26 10 -9 29 -38 42 -64 13 -26 36 -66 51 -89 15 -23 28
-46 28 -51 0 -5 7 -15 15 -22 9 -7 23 -29 32 -49 9 -20 22 -43 29 -51 7 -8 27
-42 44 -75 17 -33 62 -114 100 -180 38 -66 112 -208 166 -315 54 -107 102
-196 106 -198 4 -2 8 -10 8 -18 0 -8 22 -58 50 -112 83 -162 260 -525 260
-534 0 -4 18 -44 39 -88 22 -45 43 -91 47 -103 3 -12 26 -63 50 -114 24 -50
44 -96 44 -102 0 -6 11 -28 23 -49 13 -20 35 -65 48 -99 13 -35 27 -63 31 -63
5 0 8 -11 8 -25 0 -14 4 -25 9 -25 5 0 14 -15 21 -32 37 -99 45 -118 69 -166
11 -24 21 -52 21 -62 0 -11 5 -22 10 -25 6 -3 10 -14 10 -25 0 -10 9 -35 19
-57 42 -84 72 -157 78 -187 3 -17 17 -52 29 -78 13 -26 24 -52 24 -58 0 -6 8
-29 18 -53 23 -53 37 -90 73 -197 16 -47 34 -98 40 -115 82 -229 105 -294 129
-372 16 -50 40 -124 55 -165 14 -40 46 -131 70 -203 24 -71 58 -168 75 -215
18 -47 43 -119 56 -160 13 -41 38 -113 55 -160 16 -47 37 -110 44 -141 8 -31
21 -74 29 -95 38 -97 110 -370 101 -384 -3 -5 0 -12 6 -15 5 -4 8 -13 5 -21
-3 -8 -1 -14 4 -14 5 0 12 -16 16 -35 3 -19 10 -38 15 -41 17 -10 9 -30 -15
-32 -16 -1 -36 12 -67 45 l-44 47 1 92 1 92 -29 4 c-15 3 -28 2 -28 -1 0 -3
-11 -7 -25 -7 -14 -1 -25 2 -25 8 0 5 -5 6 -10 3 -5 -3 -10 -1 -10 5 0 7 -6
10 -14 7 -10 -4 -16 5 -21 34 -5 29 -11 39 -25 39 -14 0 -21 -9 -24 -33 -14
-86 -21 -155 -18 -179 1 -15 -3 -30 -8 -33 -6 -3 -10 4 -10 16 0 18 -3 19 -15
9 -11 -9 -18 -8 -36 9 -22 20 -79 30 -79 13 0 -4 6 -16 14 -27 23 -35 27 -73
11 -105 -9 -17 -12 -30 -8 -30 5 0 9 -14 10 -31 1 -17 10 -38 20 -45 16 -13
14 -13 -16 -9 -19 3 -38 8 -43 11 -4 3 -8 1 -8 -5 0 -5 6 -11 13 -14 10 -3 10
-9 0 -26 -18 -29 -16 -32 12 -27 28 5 44 -10 18 -17 -17 -4 -17 -5 0 -6 9 0
17 -5 17 -10 0 -5 10 -7 22 -3 17 4 20 2 15 -13 -5 -13 -3 -16 8 -11 10 3 15
-1 15 -13 0 -11 6 -21 13 -24 16 -6 -1 -24 -28 -29 -14 -2 -20 2 -19 14 1 10
-2 16 -6 13 -5 -3 -25 6 -46 20 -20 14 -44 25 -53 25 -10 0 -21 4 -26 9 -6 5
-22 7 -36 4 -23 -4 -28 -11 -33 -54 -4 -26 -11 -51 -16 -54 -18 -11 -10 -31
30 -74 31 -33 40 -51 40 -77 0 -21 4 -33 10 -29 5 3 10 2 10 -3 0 -6 -20 -12
-45 -14 -33 -2 -46 1 -49 12 -2 8 -4 5 -5 -7 -1 -18 -7 -23 -28 -23 -22 0 -25
2 -13 10 13 9 13 10 0 11 -10 0 -8 3 5 9 15 7 16 9 4 9 -13 1 -17 12 -16 54 1
81 -27 125 -94 148 -30 11 -55 15 -57 10 -2 -5 -16 -22 -31 -39 -16 -16 -30
-33 -32 -38 -2 -5 -17 -16 -34 -24 -25 -13 -30 -22 -30 -50 0 -19 5 -41 12
-48 15 -15 63 -6 63 13 0 7 7 16 16 19 31 12 37 6 15 -15 -12 -12 -20 -27 -17
-35 4 -11 -5 -13 -47 -9 -36 3 -47 2 -37 -5 8 -5 23 -10 33 -10 9 0 17 -5 17
-10 0 -17 -31 -24 -41 -9 -8 11 -10 10 -8 -6 3 -39 -1 -45 -28 -45 -26 0 -26
1 -7 15 18 15 18 15 -11 13 -16 -2 -33 -7 -37 -13 -5 -6 -12 -4 -18 5 -9 13
-11 13 -20 0 -8 -13 -11 -13 -19 -1 -13 21 -68 24 -75 5 -3 -8 -10 -13 -15 -9
-5 3 -12 1 -16 -5 -11 -18 -27 -11 -20 10 5 16 2 20 -14 20 -12 0 -21 -7 -21
-15 0 -8 -4 -15 -10 -15 -5 0 -7 -7 -4 -15 4 -8 1 -15 -5 -15 -6 0 -11 5 -11
10 0 6 -7 10 -15 10 -8 0 -15 -7 -15 -15 0 -8 4 -15 10 -15 19 0 -2 -29 -23
-32 -15 -2 -23 -12 -27 -33 -4 -25 -11 -31 -41 -35 -34 -6 -35 -5 -32 24 1 17
0 23 -3 14 -3 -10 -9 -18 -12 -19 -30 -3 -47 -9 -50 -18 -2 -5 -10 -7 -18 -4
-8 3 -14 1 -14 -4 0 -18 -47 -36 -88 -34 -27 1 -41 -2 -38 -8 4 -5 2 -12 -4
-16 -6 -4 -10 5 -10 21 0 24 -2 26 -13 12 -6 -9 -32 -18 -57 -21 -27 -4 -51
-13 -61 -25 -11 -14 -20 -17 -30 -11 -8 5 -9 9 -4 9 11 0 -15 20 -27 20 -4 0
-6 -12 -5 -27 1 -19 -3 -28 -13 -28 -8 0 -15 5 -15 12 0 22 -12 23 -68 4 -51
-18 -58 -18 -72 -5 -19 20 -19 34 0 34 8 0 15 -7 15 -15 0 -8 5 -15 11 -15 6
0 8 7 5 15 -7 20 21 32 37 16 14 -14 27 -14 27 -1 0 6 -7 10 -15 10 -8 0 -15
5 -15 10 0 6 6 10 13 10 9 0 9 2 -1 8 -9 6 5 22 48 53 33 24 60 47 60 51 0 5
7 8 16 8 9 0 18 9 21 20 3 12 14 20 27 21 17 1 17 2 3 6 -23 6 -22 33 2 33 17
0 18 4 11 31 -11 38 -15 43 -30 34 -8 -5 -6 -14 5 -31 13 -20 13 -24 1 -24
-34 0 -51 68 -30 118 13 31 12 33 -12 42 -17 7 -32 6 -47 -1 -16 -9 -22 -9
-25 0 -6 19 -22 1 -22 -26 0 -20 -4 -24 -20 -20 -24 6 -28 1 -34 -47 -3 -27
-1 -39 11 -43 22 -9 63 -48 63 -62 0 -12 -20 -16 -20 -3 -1 19 -30 43 -42 36
-7 -5 -17 -9 -23 -9 -31 -3 -65 -26 -65 -45 0 -12 -5 -18 -10 -15 -6 4 -8 11
-5 16 4 5 -1 9 -9 9 -9 0 -16 -7 -16 -15 0 -9 -9 -15 -23 -15 -13 0 -28 -5
-34 -11 -12 -12 -37 -3 -28 11 10 17 -18 23 -30 7 -7 -9 -15 -14 -18 -10 -4 3
-8 -1 -8 -10 -1 -10 -3 -21 -4 -27 -1 -5 -3 -13 -4 -17 -1 -5 -6 2 -11 15 -5
12 -17 22 -26 22 -13 0 -14 -3 -4 -15 9 -11 9 -15 1 -15 -6 0 -14 7 -17 15 -5
12 -9 12 -29 -3 -13 -9 -21 -20 -18 -24 8 -14 -10 -8 -29 9 -18 16 -18 16 -12
0 4 -11 1 -17 -9 -17 -10 0 -13 7 -10 20 7 26 -11 26 -37 0 -19 -19 -22 -20
-52 -4 -25 13 -47 15 -108 10 l-78 -7 -7 58 c-10 85 -31 130 -63 138 -15 4
-35 14 -44 22 -14 13 -20 13 -33 3 -8 -7 -21 -10 -29 -7 -11 4 -13 -1 -9 -24
4 -29 -9 -39 -24 -16 -11 17 -34 98 -34 120 0 9 -6 17 -13 17 -8 0 -19 7 -26
15 -7 8 -16 15 -21 15 -5 0 -6 -7 -3 -15 8 -20 -10 -19 -26 0 -17 20 1 41 27
31 10 -4 43 -9 73 -10 30 -2 47 -1 38 1 -10 3 -18 9 -18 14 0 5 8 9 18 10 25
1 -36 20 -82 25 -22 2 -45 -1 -53 -7 -10 -9 -13 -8 -13 0 0 7 -5 9 -11 5 -8
-4 -7 -9 2 -14 10 -7 10 -12 0 -23 -8 -10 -9 -17 -1 -22 5 -3 10 -10 10 -14 0
-16 -74 -81 -92 -81 -11 0 -17 4 -14 8 3 5 -8 6 -25 4 -16 -2 -29 -10 -29 -17
0 -7 -18 -40 -40 -73 -22 -33 -40 -66 -40 -75 0 -33 -39 -136 -59 -158 -13
-13 -29 -39 -36 -57 -17 -38 -37 -41 -71 -7 -14 14 -31 25 -39 25 -19 0 -19 8
0 27 8 8 12 19 9 24 -3 6 -15 0 -26 -13 l-20 -23 6 23 c8 24 -3 29 -22 10 -15
-15 -16 -32 -2 -23 5 3 10 -3 10 -14 0 -13 -5 -19 -14 -15 -19 7 -24 61 -36
394 -18 498 -25 614 -49 770 -6 36 -13 87 -17 114 -3 30 -9 44 -14 37 -10 -17
-28 33 -44 125 -14 81 -5 362 14 449 7 28 14 69 17 93 4 37 2 44 -15 49 -11 3
-23 17 -27 31 -4 15 -10 21 -12 14 -3 -6 -9 -9 -14 -6 -6 4 -6 10 0 18 7 9 5
23 -9 49 -11 20 -19 40 -18 44 0 5 -4 21 -10 36 -7 16 -12 46 -12 67 0 21 -4
40 -9 42 -6 1 -13 18 -16 37 -3 19 -8 37 -10 41 -3 4 -6 22 -9 41 -2 19 -11
68 -20 109 -20 92 -20 181 -1 370 17 167 19 233 6 226 -4 -3 -11 -36 -15 -73
-4 -37 -11 -95 -17 -128 -20 -126 -22 -280 -5 -357 81 -367 128 -629 143 -795
4 -46 3 -53 -14 -53 -15 0 -15 -2 -4 -9 11 -7 16 -39 18 -128 9 -307 9 -419 1
-430 -6 -7 -7 -16 -4 -22 3 -5 -1 -21 -9 -37 -7 -15 -12 -31 -9 -36 3 -5 0 -7
-8 -6 -8 2 -12 -5 -10 -21 1 -13 -5 -29 -15 -37 -11 -8 -13 -13 -5 -14 6 0 12
-7 12 -15 0 -12 -4 -13 -19 -6 -10 6 -21 7 -25 4 -3 -3 -6 -1 -6 5 0 7 -4 12
-10 12 -5 0 -10 -9 -10 -20 0 -11 -7 -20 -15 -20 -8 0 -17 -11 -20 -23 -7 -27
-34 -31 -52 -8 -16 21 -16 15 2 -77 37 -191 33 -165 69 -437 12 -92 46 -504
46 -557 0 -10 54 -11 99 -2 37 8 39 33 3 49 -25 11 -29 25 -8 25 15 0 42 -22
48 -40 2 -6 18 -12 37 -15 44 -5 130 -25 159 -36 17 -7 34 -3 65 13 29 15 68
24 124 28 76 6 84 8 104 36 34 45 130 134 164 152 40 21 138 41 200 42 52 0
163 -20 249 -46 27 -7 79 -14 115 -14 36 0 104 -7 151 -15 47 -8 121 -16 166
-17 68 -3 80 -5 77 -19 -4 -13 -12 -15 -43 -9 -22 4 -39 4 -38 1 2 -20 -4 -31
-17 -31 -8 0 -15 -5 -15 -11 0 -6 -21 -8 -59 -5 -66 6 -91 14 -91 27 0 19 -63
0 -81 -25 -9 -11 -111 3 -103 15 3 5 -7 9 -23 8 -15 0 -22 -3 -15 -6 6 -2 10
-9 6 -14 -10 -16 -31 -10 -42 14 l-11 22 0 -22 c-1 -27 -7 -28 -27 -8 -10 9
-24 13 -40 9 -15 -4 -24 -2 -24 6 0 6 -5 8 -10 5 -6 -3 -8 -30 -6 -58 l4 -52
94 -23 c51 -12 145 -27 208 -33 63 -6 119 -15 125 -20 5 -5 17 -9 27 -9 10 0
18 -5 18 -11 0 -8 4 -8 13 -2 6 6 29 13 49 17 31 6 40 3 60 -19 17 -18 30 -24
43 -19 18 7 18 8 -1 15 -18 7 -18 8 2 8 11 1 28 -5 39 -13 11 -8 33 -11 57 -9
21 3 38 1 38 -5 0 -5 37 -12 83 -15 110 -7 119 -10 129 -36 6 -18 5 -21 -10
-17 -9 3 -30 8 -47 12 -16 4 -34 10 -40 14 -5 4 -17 7 -25 8 -8 0 -36 3 -63 7
-38 6 -51 4 -67 -10 -19 -17 -21 -17 -40 0 -12 11 -33 20 -48 22 -15 2 -43 6
-62 9 -26 4 -31 3 -20 -5 12 -9 11 -11 -7 -11 -13 0 -23 5 -23 10 0 6 -15 10
-32 9 -28 0 -30 -2 -13 -9 18 -8 18 -9 -6 -9 -14 -1 -34 6 -45 14 -25 19 -48
19 -40 0 3 -10 -1 -15 -11 -15 -9 0 -13 -3 -9 -7 4 -5 13 -8 19 -8 7 0 13 -10
15 -22 4 -24 -13 -32 -21 -10 -2 6 -8 9 -12 5 -4 -4 -2 -14 5 -23 10 -12 10
-15 -4 -15 -9 0 -15 5 -14 12 5 22 -28 19 -40 -4 -6 -13 -11 -17 -11 -10 -1 7
-5 11 -10 7 -5 -3 -16 4 -25 16 -9 14 -21 19 -31 15 -9 -3 -24 0 -35 6 -23 15
-70 -3 -70 -27 0 -8 -8 -15 -18 -15 -10 0 -24 -6 -30 -12 -10 -10 -15 -10 -22
2 -5 8 -12 11 -17 7 -4 -5 -1 -12 6 -17 12 -7 11 -11 -2 -25 -10 -9 -17 -21
-17 -26 0 -5 528 -9 1355 -9 l1355 0 0 528 c0 397 -3 531 -12 540 -9 9 -9 15
0 24 9 9 12 2480 12 11060 l0 11048 -3710 0 -3710 0 0 -45 c0 -91 -37 -186
-107 -275 -2 -2 -8 2 -12 9 -6 9 -11 10 -15 2 -4 -6 -2 -11 4 -11 14 0 9 -21
-5 -22 -23 -1 -85 -40 -85 -53 0 -9 -17 -23 -37 -33 -21 -9 -47 -25 -57 -34
-11 -10 -28 -18 -37 -18 -10 0 -22 -6 -26 -13 -7 -11 -54 -25 -178 -53 -27 -6
-28 -7 -10 -14 19 -7 18 -8 -5 -13 -54 -12 -130 -17 -130 -9 0 5 -78 11 -174
15 -165 5 -207 12 -227 40 -3 5 -30 12 -60 16 -30 4 -70 17 -89 29 -69 42 -90
52 -90 43 0 -5 -16 -5 -40 1 -22 6 -40 15 -40 20 0 5 -22 31 -50 58 -27 26
-59 68 -70 91 -12 24 -26 52 -31 61 -5 10 -9 25 -9 33 0 8 -4 15 -9 15 -13 0
-24 57 -22 113 l2 47 -4186 0 -4185 0 0 -8696z m8488 6554 c7 -10 19 -18 26
-18 16 0 50 -38 104 -118 42 -62 43 -65 49 -170 3 -59 6 -129 5 -155 -1 -52
-29 -157 -43 -157 -4 0 -11 -9 -14 -21 -9 -28 -119 -139 -138 -139 -8 0 -26
-9 -40 -20 -14 -11 -34 -20 -45 -20 -12 0 -23 -4 -26 -9 -5 -8 -73 -21 -141
-26 -16 -2 -61 -8 -100 -14 -92 -14 -125 -14 -125 2 -1 12 -66 47 -88 47 -17
0 -106 69 -116 90 -13 27 -36 33 -36 10 0 -11 5 -20 10 -20 6 0 10 -9 10 -20
0 -18 -7 -20 -66 -20 -57 0 -67 -3 -71 -20 -4 -13 -14 -20 -30 -20 -20 0 -29
-10 -48 -55 -15 -33 -31 -55 -40 -55 -9 0 -24 -19 -34 -44 -11 -24 -26 -46
-35 -49 -10 -4 -16 -18 -16 -36 0 -16 -4 -33 -10 -36 -5 -3 -10 3 -10 15 0 20
-2 19 -30 -8 -16 -17 -30 -40 -30 -52 0 -22 -50 -80 -69 -80 -6 0 -11 -6 -11
-12 -1 -30 -160 -88 -160 -58 0 6 -18 10 -39 10 -22 0 -41 3 -43 8 -4 8 -89
52 -102 52 -11 0 -56 48 -56 60 0 5 -10 20 -22 34 -13 13 -31 41 -42 63 -10
21 -22 45 -26 54 -5 9 -14 53 -20 98 -11 84 -1 192 20 199 6 2 10 13 10 24 0
19 78 108 94 108 4 0 13 6 20 13 38 38 249 77 414 77 85 0 92 -1 92 -20 0 -23
16 -24 119 -14 59 7 79 18 44 27 -16 3 -16 5 2 11 63 24 94 40 99 52 8 20 34
17 39 -3 3 -11 5 -6 6 11 1 36 41 105 75 130 30 22 33 33 9 38 -15 3 -13 9 13
33 17 17 41 51 54 77 16 32 29 46 41 45 11 -1 19 -9 19 -19 0 -15 4 -16 30 -7
17 6 30 15 30 20 0 5 5 9 11 9 6 0 20 11 31 25 11 14 29 25 42 25 20 0 64 24
77 42 3 5 58 11 122 15 84 4 117 10 117 19 0 18 71 -5 88 -28z m-4703 -8 c3
-5 -1 -10 -9 -10 -9 0 -16 5 -16 10 0 6 4 10 9 10 6 0 13 -4 16 -10z m68 -121
c30 -16 37 -30 31 -56 -5 -18 -1 -25 19 -32 14 -5 27 -16 30 -23 3 -7 6 10 7
37 1 41 3 45 10 25 4 -14 17 -45 28 -70 l21 -45 1 55 2 55 12 -33 c6 -19 29
-52 51 -73 27 -27 36 -42 28 -47 -8 -5 -9 -13 -3 -22 6 -8 10 -25 10 -37 0
-13 5 -23 10 -23 6 0 10 -26 10 -57 0 -81 -22 -263 -32 -263 -4 0 -8 -18 -8
-40 0 -27 -4 -40 -14 -40 -7 0 -16 -9 -19 -21 -3 -11 -15 -23 -26 -26 -12 -3
-21 -12 -21 -19 0 -10 -13 -14 -40 -14 -27 0 -40 4 -40 13 0 8 -18 20 -40 27
-68 23 -51 40 40 40 l80 0 0 40 c0 33 -4 40 -19 40 -10 0 -21 -7 -24 -15 -5
-11 -18 -13 -59 -8 -44 5 -59 13 -90 45 -21 21 -40 38 -43 38 -3 0 -5 -13 -5
-30 0 -27 3 -30 30 -30 29 0 30 -2 29 -42 0 -37 -2 -40 -10 -20 -5 13 -18 26
-29 29 -11 3 -20 12 -20 19 0 8 -6 14 -13 14 -7 0 -21 24 -31 53 -11 28 -23
56 -27 62 -5 5 -9 17 -9 27 0 10 -6 18 -13 18 -7 0 -21 24 -31 53 -11 28 -23
56 -27 62 -19 20 -10 45 17 45 17 0 24 4 21 13 -15 36 -19 51 -9 39 5 -8 18
-12 28 -10 18 3 17 5 -4 26 -23 23 -32 92 -12 92 6 0 10 16 10 36 0 40 10 53
66 82 44 24 94 28 127 11z m1841 -1394 c3 -8 1 -15 -4 -15 -6 0 -10 7 -10 15
0 8 2 15 4 15 2 0 6 -7 10 -15z m-14 -87 c0 -12 8 -30 17 -40 9 -10 18 -42 21
-73 2 -30 8 -55 13 -55 5 0 9 -54 9 -120 0 -73 -4 -120 -10 -120 -5 0 -10 -17
-10 -37 0 -21 -9 -53 -20 -71 -11 -18 -20 -41 -20 -50 0 -18 -56 -52 -85 -52
-15 0 -45 27 -45 41 0 5 11 9 25 9 25 0 25 1 25 80 0 47 4 80 10 80 6 0 10 33
10 80 l0 80 30 0 30 0 0 80 c0 47 -4 80 -10 80 -5 0 -10 25 -10 55 0 30 5 55
10 55 6 0 10 -10 10 -22z m-140 -489 c0 -46 -4 -79 -10 -79 -5 0 -10 18 -10
40 0 22 -4 40 -8 40 -7 0 -42 62 -42 75 0 6 44 11 58 7 8 -3 12 -29 12 -83z
m-1267 -196 c26 -9 47 -21 47 -26 0 -5 18 -31 40 -57 22 -26 40 -54 40 -62 0
-8 4 -18 8 -23 5 -6 16 -30 25 -55 9 -25 22 -58 29 -75 12 -30 12 -30 18 25
l5 55 25 -27 c34 -35 46 -62 61 -136 7 -38 16 -61 23 -59 7 3 12 -23 13 -77 2
-44 7 -82 13 -84 12 -4 13 -79 1 -84 -5 -1 -12 -38 -16 -80 -7 -77 -7 -78 16
-79 l24 0 -22 -9 c-22 -9 -31 -31 -31 -76 0 -12 -6 -41 -12 -65 -10 -35 -14
-40 -21 -26 -6 9 -15 17 -22 17 -17 0 -57 -45 -57 -64 0 -9 -6 -16 -13 -16
-11 0 -37 -51 -37 -73 0 -4 11 -7 25 -7 32 0 32 -16 -2 -47 -18 -18 -23 -27
-14 -32 9 -6 8 -17 -5 -44 -10 -21 -21 -37 -26 -37 -4 0 -9 37 -9 83 l-2 82
-10 -82 c-5 -46 -14 -83 -18 -83 -5 0 -9 -20 -9 -44 0 -26 -6 -51 -15 -60 -13
-13 -13 -16 -1 -29 8 -8 11 -18 6 -23 -4 -5 -11 -74 -14 -154 -8 -174 -15
-250 -25 -250 -4 0 -14 -53 -21 -117 -10 -87 -18 -122 -31 -137 -14 -14 -19
-35 -19 -72 0 -29 -4 -56 -10 -59 -5 -3 -10 -26 -10 -51 0 -24 -4 -44 -10 -44
-5 0 -10 -17 -10 -38 0 -26 -7 -45 -20 -57 -16 -14 -20 -31 -20 -82 0 -35 -4
-63 -10 -63 -6 0 -10 -40 -10 -99 0 -54 -3 -126 -6 -160 -6 -56 -9 -61 -30
-61 -21 0 -24 5 -26 43 l-1 42 -4 -42 c-3 -29 -9 -43 -19 -43 -10 0 -14 -12
-14 -37 0 -21 -7 -49 -15 -63 -8 -14 -17 -32 -21 -40 -4 -8 -23 -34 -42 -57
-38 -47 -70 -55 -90 -23 -19 30 -32 24 -32 -15 0 -36 -22 -50 -34 -20 -3 8
-15 15 -26 15 -17 0 -20 6 -20 40 0 33 -3 40 -20 40 -18 0 -20 7 -20 80 0 73
-2 80 -20 80 -22 0 -23 6 -14 99 5 41 11 61 20 61 10 0 14 13 14 40 0 29 -4
40 -16 40 -12 0 -9 8 10 33 32 42 32 45 -1 49 -27 3 -28 6 -31 61 -2 31 -7 57
-11 57 -13 0 -31 49 -31 85 0 19 -4 35 -10 35 -5 0 -10 18 -10 40 0 22 -4 40
-10 40 -5 0 -10 18 -10 40 0 22 -4 40 -8 40 -11 0 -41 262 -49 428 -6 130 -6
132 16 132 20 0 21 4 21 95 0 90 2 97 26 122 24 24 26 32 21 80 -3 29 -1 67 4
85 10 38 -4 61 -33 52 -34 -10 -48 12 -41 67 5 41 2 55 -16 79 -11 16 -21 36
-21 45 0 8 -8 15 -19 15 -16 0 -17 6 -13 53 2 28 11 59 18 68 23 25 17 41 -13
37 -21 -2 -29 -9 -31 -27 -2 -13 -15 -35 -28 -48 -21 -21 -26 -22 -39 -9 -8 8
-15 26 -15 40 0 14 -4 26 -9 26 -13 0 -21 27 -15 45 4 8 15 15 26 15 33 0 58
19 58 45 0 14 8 29 20 35 11 6 20 17 20 25 0 8 9 15 20 15 11 0 20 5 20 11 0
14 55 69 69 69 6 0 11 5 11 11 0 17 57 69 75 69 10 0 23 16 33 40 10 24 24 40
34 40 12 0 18 10 20 33 2 22 10 35 26 42 12 5 22 16 22 23 0 22 51 62 81 62
21 0 29 -5 32 -22 3 -22 4 -22 12 -3 5 11 11 22 15 25 14 11 50 82 50 98 0 10
9 25 20 35 11 9 20 24 20 32 0 8 9 20 20 27 11 7 20 21 20 30 0 10 7 18 15 18
8 0 28 13 43 30 32 35 65 38 135 13z m6477 -457 c0 -8 -15 -19 -33 -25 -19 -7
-40 -23 -47 -36 -13 -24 -40 -35 -40 -16 0 18 43 62 74 76 41 18 46 18 46 1z
m-6123 -343 c-2 -21 -4 -4 -4 37 0 41 2 58 4 38 2 -21 2 -55 0 -75z m6653
-103 c0 -5 -2 -10 -4 -10 -3 0 -8 5 -11 10 -3 6 -1 10 4 10 6 0 11 -4 11 -10z
m-2175 -101 c28 0 70 1 94 1 34 0 53 -7 90 -34 26 -18 68 -43 93 -54 25 -11
49 -25 52 -31 4 -6 17 -11 29 -11 12 0 37 -9 55 -20 20 -12 42 -18 53 -15 14
5 31 -6 64 -39 55 -54 155 -131 182 -140 11 -4 25 -17 31 -30 7 -16 22 -26 46
-30 23 -4 36 -13 36 -22 0 -9 16 -30 35 -47 19 -17 35 -38 35 -47 0 -10 15
-33 33 -53 102 -112 137 -169 137 -224 0 -40 32 -103 52 -103 9 0 9 -3 0 -12
-18 -18 -15 -27 12 -38 19 -7 23 -14 19 -32 -3 -13 -13 -29 -22 -36 -15 -12
-15 -14 2 -23 10 -6 17 -22 17 -39 0 -34 27 -70 52 -70 13 0 17 -8 16 -33 -1
-18 4 -42 10 -54 8 -14 9 -24 2 -28 -5 -3 -10 -1 -10 4 0 6 -6 11 -12 11 -17
0 -61 -68 -53 -81 4 -5 8 -29 9 -53 1 -24 8 -49 14 -57 72 -84 104 -156 107
-244 4 -97 -10 -113 -96 -115 -35 -1 -109 6 -163 14 -55 9 -101 14 -104 11 -2
-2 -22 5 -43 15 -23 12 -58 20 -90 20 -29 0 -79 7 -110 16 -61 17 -129 13
-130 -9 0 -7 -4 -2 -9 10 -8 20 -13 21 -36 13 -15 -6 -35 -8 -46 -5 -21 7
-104 -21 -131 -44 -10 -8 -27 -16 -38 -18 -27 -4 -69 -27 -94 -50 -11 -11 -32
-19 -45 -17 -35 3 -60 -5 -60 -20 0 -8 -6 -19 -14 -26 -8 -6 -16 -21 -18 -33
-2 -16 -10 -22 -28 -23 -60 -3 -62 -4 -55 -21 3 -10 7 -44 8 -76 2 -43 7 -62
20 -72 15 -11 15 -14 3 -24 -16 -13 -12 -36 11 -62 7 -9 11 -18 9 -20 -7 -6
-19 -150 -17 -194 1 -22 8 -53 16 -69 8 -16 15 -41 15 -56 0 -16 7 -30 15 -34
8 -3 15 -18 15 -32 0 -24 18 -90 28 -104 2 -2 7 2 12 10 8 12 10 11 10 -5 0
-10 9 -28 20 -40 11 -11 35 -38 54 -59 24 -28 38 -37 51 -33 16 7 16 9 1 32
-9 13 -16 33 -16 45 0 29 36 26 108 -10 53 -26 217 -80 244 -80 5 0 -9 16 -32
35 -23 19 -50 35 -59 35 -9 0 -26 6 -36 14 -18 13 -18 16 -3 62 12 39 21 50
43 56 16 4 33 14 37 23 19 33 35 15 41 -45 7 -59 39 -153 61 -177 18 -19 132
-53 178 -53 24 0 61 9 83 19 48 22 112 90 121 128 3 16 7 34 9 40 6 19 33 5
41 -20 3 -12 16 -33 29 -47 27 -30 45 -63 45 -84 0 -12 -10 -16 -39 -16 -23 0
-48 -8 -63 -19 -13 -11 -38 -23 -54 -27 -16 -4 -34 -11 -40 -16 -6 -4 -26 -7
-44 -6 -18 2 -34 -1 -36 -7 -3 -6 40 -10 115 -10 128 0 156 -9 135 -43 -7 -11
-24 -17 -47 -17 -20 0 -41 -5 -47 -11 -6 -6 -33 -9 -63 -7 -78 6 -306 73 -359
106 -27 16 -53 27 -60 25 -6 -2 6 -15 28 -28 21 -13 48 -31 59 -41 20 -18 75
-38 211 -79 55 -17 89 -21 150 -17 90 5 155 14 199 27 17 5 62 12 100 15 125
12 138 14 146 26 4 7 32 14 63 17 41 3 57 9 61 22 3 10 23 21 51 27 51 12 88
7 80 -12 -2 -6 -1 -18 4 -25 9 -15 68 -22 76 -8 3 5 13 0 21 -12 13 -19 13
-24 2 -31 -8 -5 -9 -9 -3 -9 6 0 14 -13 18 -30 3 -16 10 -30 16 -30 5 0 9 3 7
8 -1 4 3 9 8 12 6 3 11 -10 13 -27 2 -18 7 -33 11 -33 4 0 13 -33 20 -72 7
-40 17 -93 23 -118 23 -97 38 -318 30 -425 -1 -11 1 -63 4 -115 4 -87 3 -93
-10 -70 -14 23 -15 18 -16 -76 0 -64 -6 -117 -15 -144 -8 -23 -15 -67 -15 -97
0 -45 -3 -54 -15 -49 -22 8 -36 -27 -30 -78 5 -38 3 -45 -10 -40 -10 4 -15 0
-15 -15 0 -12 -6 -21 -14 -21 -18 0 -29 -33 -21 -61 5 -13 3 -19 -3 -15 -14 9
-62 -32 -56 -48 3 -8 -3 -29 -12 -48 -10 -18 -19 -51 -20 -73 -1 -23 -9 -55
-18 -72 -9 -18 -16 -40 -16 -51 0 -10 -9 -27 -19 -39 -11 -12 -16 -25 -11 -33
6 -9 10 -8 19 6 9 16 12 17 20 5 6 -9 6 -22 1 -32 -5 -9 -7 -19 -4 -22 3 -3 0
-15 -8 -26 -8 -12 -18 -18 -21 -14 -4 3 -7 1 -7 -5 0 -17 38 -15 42 2 2 10 9
11 28 4 24 -9 24 -10 6 -24 -19 -14 -19 -14 1 -14 27 0 34 -10 26 -38 -3 -14
-12 -21 -27 -19 -19 2 -21 -2 -19 -52 3 -60 -29 -185 -55 -213 -8 -10 -11 -18
-7 -18 5 0 4 -5 -3 -12 -7 -7 -12 -25 -12 -40 0 -31 -43 -83 -60 -73 -6 3 -7
-1 -4 -9 8 -21 -25 -54 -36 -36 -12 20 -35 5 -56 -37 -11 -21 -33 -55 -49 -75
-24 -30 -37 -38 -62 -38 -18 0 -33 5 -33 10 0 6 -14 10 -31 10 -24 0 -30 -4
-25 -15 7 -20 4 -19 -25 6 -16 15 -20 23 -11 26 6 3 12 11 12 19 0 12 -4 12
-20 4 -11 -6 -18 -15 -15 -20 9 -15 -26 -60 -46 -60 -10 0 -31 -13 -46 -30
-15 -17 -36 -30 -49 -30 -17 0 -25 -7 -30 -25 -3 -13 -18 -32 -32 -42 -17 -11
-27 -27 -27 -43 0 -19 -6 -26 -24 -28 -13 -2 -28 2 -33 10 -7 10 -11 9 -23 -7
-14 -18 -14 -20 5 -27 11 -4 20 -16 20 -28 0 -18 -6 -20 -53 -20 -54 0 -87
-21 -87 -55 0 -18 -40 -29 -77 -21 -16 3 -22 3 -15 0 18 -8 33 -40 26 -58 -8
-22 -34 -20 -34 2 0 34 -92 57 -104 26 -5 -13 -15 -15 -47 -10 -23 4 -48 13
-56 21 -8 8 -26 15 -39 15 -21 0 -24 3 -19 22 6 17 4 20 -10 14 -10 -3 -24 -1
-31 5 -8 6 -23 9 -33 6 -13 -3 -29 5 -48 24 -34 34 -51 36 -55 7 -3 -20 -9
-23 -52 -24 -27 -1 -52 -7 -56 -14 -8 -13 -22 -11 -107 15 -17 6 -25 1 -37
-23 -17 -32 -38 -35 -108 -17 -22 6 -32 2 -52 -19 l-24 -27 -51 31 c-49 31
-71 32 -71 6 0 -18 -53 -18 -97 0 l-36 15 5 -45 c7 -57 -6 -69 -60 -60 -38 6
-42 4 -47 -18 -6 -23 -10 -24 -60 -20 -43 4 -59 0 -83 -17 -17 -11 -37 -21
-45 -21 -9 0 -17 -6 -20 -12 -3 -8 -9 -3 -15 12 l-11 25 -1 -25 c-1 -24 -1
-24 -15 -7 -13 18 -14 18 -26 -1 -10 -16 -17 -18 -31 -11 -26 14 -76 4 -103
-21 -14 -13 -28 -18 -39 -14 -12 5 -19 0 -23 -15 -6 -24 -14 -26 -31 -9 -6 6
-20 13 -29 15 -23 3 -81 -23 -111 -50 l-22 -21 -39 22 c-44 25 -93 29 -110 8
-9 -11 -7 -15 11 -20 21 -7 21 -8 -12 -20 -36 -13 -70 -11 -70 5 0 5 6 9 13 9
6 0 3 6 -7 12 -12 6 -43 8 -82 5 -63 -6 -85 2 -96 34 -2 6 -25 14 -51 16 -37
4 -53 1 -68 -12 -21 -20 -25 -51 -8 -57 9 -3 8 -9 -1 -24 -9 -15 -20 -19 -41
-16 -16 2 -32 8 -35 13 -3 5 -14 9 -25 9 -10 0 -19 7 -19 15 0 8 -4 15 -10 15
-14 0 -13 -27 1 -32 7 -2 9 -13 5 -26 -4 -12 -11 -20 -16 -17 -4 3 -13 -9 -19
-25 -6 -19 -17 -30 -29 -30 -11 0 -25 -7 -32 -15 -7 -8 -20 -15 -29 -15 -13 0
-13 2 -2 9 9 6 10 11 2 15 -6 4 -11 16 -11 27 0 22 -29 26 -62 8 -17 -9 -24
-8 -33 4 -14 20 -71 27 -67 9 2 -9 -6 -12 -25 -10 -23 2 -29 -1 -31 -19 -2
-14 -10 -23 -21 -23 -10 0 -21 -3 -25 -7 -10 -10 -89 -3 -103 9 -7 6 -13 19
-13 29 0 13 -7 19 -23 19 -33 0 -38 9 -20 36 14 23 14 24 -6 24 -12 0 -29 9
-38 20 -10 11 -25 20 -35 20 -13 0 -18 8 -18 25 0 16 6 25 15 25 14 0 19 11
16 38 -1 6 6 12 15 12 30 0 11 7 -39 14 -39 6 -48 4 -54 -9 -3 -10 0 -21 8
-25 7 -5 10 -13 5 -17 -5 -4 -11 -2 -13 5 -3 6 -11 12 -20 12 -10 0 -13 7 -9
23 3 12 3 16 0 10 -4 -9 -11 -10 -25 -3 -16 9 -17 15 -8 31 9 18 8 20 -8 15
-28 -9 -44 7 -45 45 -1 31 -5 39 -34 72 -6 7 -14 34 -18 60 -5 32 -12 47 -22
47 -8 0 -12 5 -9 10 3 6 1 10 -4 10 -6 0 -11 7 -11 15 0 8 -12 22 -27 32 -16
9 -30 19 -33 20 -2 2 -5 18 -6 36 -2 18 -5 48 -9 67 -3 19 -6 44 -8 55 -1 11
-10 26 -19 33 -10 7 -18 24 -18 37 0 13 -4 25 -9 27 -6 2 -12 49 -15 104 -5
90 -22 166 -46 199 -4 6 -6 33 -5 60 1 28 -3 59 -10 70 -7 12 -10 44 -8 79 2
39 -1 66 -10 80 -17 25 -21 244 -5 263 6 7 7 30 3 54 -5 29 -4 40 4 35 6 -4
11 -2 11 3 0 6 -7 11 -16 11 -14 0 -15 6 -8 38 15 67 -1 289 -25 337 -18 36
-35 109 -32 138 1 18 -3 29 -14 33 -13 6 -14 8 -3 15 10 7 9 9 -4 9 -12 0 -18
8 -18 24 0 15 -7 26 -20 29 -13 3 -20 14 -20 31 0 28 -79 121 -111 131 -11 4
-17 10 -14 15 3 4 -1 13 -9 19 -7 6 -17 39 -21 74 l-8 62 -12 -40 c-12 -40
-13 -39 -16 48 -3 52 0 89 6 91 6 3 5 8 -3 14 -10 7 -10 15 -2 37 6 16 9 34 6
42 -3 7 -1 13 4 13 5 0 8 -29 7 -65 -2 -68 14 -75 19 -8 1 21 7 51 13 66 6 16
11 46 11 67 0 27 5 40 18 45 14 6 13 9 -12 20 -29 12 -29 13 -8 24 12 6 22 17
22 23 0 6 7 20 16 29 9 10 18 38 21 61 2 24 8 55 13 70 5 16 5 28 -1 30 -8 3
-10 84 -6 363 0 61 0 146 -2 190 -1 50 1 81 8 83 6 2 11 8 11 13 0 5 8 21 17
35 9 15 18 46 19 70 1 25 9 53 18 63 9 9 16 30 16 45 0 15 5 37 12 49 7 12 15
54 18 93 5 52 12 76 27 91 14 14 24 44 32 97 6 42 18 90 26 106 8 16 12 36 9
45 -4 10 -2 15 6 13 8 -2 20 15 29 40 9 25 26 48 40 55 14 7 30 29 37 50 8 21
25 52 38 68 14 16 28 39 32 51 4 13 15 29 26 36 17 13 17 15 2 42 -16 26 -16
29 -1 45 10 9 17 25 17 34 0 10 6 24 14 30 7 6 26 31 42 56 15 25 32 45 36 45
4 0 8 8 8 18 0 11 9 27 20 37 11 10 20 26 20 36 0 9 12 28 28 41 38 32 102
140 102 172 0 15 7 41 16 58 9 17 18 40 19 52 7 43 11 54 23 68 6 8 15 30 18
49 7 35 50 108 65 110 29 4 35 4 40 -4 11 -15 26 0 54 51 24 44 110 119 174
152 21 11 89 59 132 95 9 7 26 16 38 20 12 3 35 18 52 32 17 15 41 28 53 29
12 1 39 11 58 23 20 11 54 23 75 26 66 11 192 65 198 86 5 15 9 16 25 7 14 -9
28 -8 61 5 29 11 96 18 199 23 85 4 165 11 178 15 16 6 32 4 51 -5 19 -10 45
-13 82 -10 34 4 75 0 109 -10 30 -8 80 -22 110 -30 73 -21 91 -20 83 0 -6 15
2 16 72 11 54 -5 82 -11 87 -21 10 -18 71 -31 89 -20 7 4 43 8 81 8 46 0 69 4
72 13 3 7 15 13 27 13 11 0 35 16 52 36 28 30 36 35 62 29 17 -3 53 -6 80 -6z
m-2465 -669 c0 -5 -2 -10 -4 -10 -3 0 -8 5 -11 10 -3 6 -1 10 4 10 6 0 11 -4
11 -10z m3695 -400 c3 -5 3 -15 0 -20 -7 -12 -45 5 -45 20 0 13 37 13 45 0z
m-6655 -580 c0 -5 -2 -10 -4 -10 -3 0 -8 5 -11 10 -3 6 -1 10 4 10 6 0 11 -4
11 -10z m0 -62 c0 -36 -4 -35 -14 5 -4 16 -2 27 4 27 5 0 10 -14 10 -32z
m5892 -40 c-7 -7 -12 -8 -12 -2 0 14 12 26 19 19 2 -3 -1 -11 -7 -17z m-5485
-270 c-3 -8 -6 -5 -6 6 -1 11 2 17 5 13 3 -3 4 -12 1 -19z m3 -78 c-6 -11 -17
-20 -26 -20 -8 0 -18 -10 -23 -23 -5 -13 -16 -29 -25 -36 -14 -12 -16 -8 -16
43 l0 56 50 0 c48 0 50 -1 40 -20z m6221 -5 c16 -16 35 -25 56 -25 48 0 84
-20 77 -42 -4 -13 0 -18 13 -18 21 0 73 -49 73 -68 0 -7 11 -12 24 -12 35 0
56 -10 56 -26 0 -8 -6 -17 -14 -20 -8 -3 -11 -15 -8 -30 3 -17 0 -24 -11 -24
-8 0 -17 -7 -21 -15 -3 -9 -18 -15 -35 -15 -16 0 -33 -4 -36 -10 -3 -5 -17
-10 -31 -10 -17 0 -28 -8 -36 -27 -18 -44 -19 -66 -6 -75 9 -5 7 -8 -7 -8 -11
0 -74 22 -140 49 -66 26 -142 54 -170 60 -130 31 -198 41 -300 47 -142 7 -149
9 -164 40 -10 22 -8 31 10 60 11 19 25 34 30 34 5 0 9 7 9 15 0 9 17 23 38 33
20 9 39 20 42 23 7 8 30 17 140 55 90 30 103 32 241 33 144 1 147 0 170 -24z
m969 -45 c0 -5 -5 -10 -11 -10 -5 0 -7 5 -4 10 3 6 8 10 11 10 2 0 4 -4 4 -10z
m160 -99 c0 -20 6 -30 20 -34 11 -3 20 -12 20 -21 0 -13 -13 -16 -70 -16 -67
0 -70 1 -60 19 5 11 10 33 10 50 0 29 2 31 40 31 37 0 40 -2 40 -29z m118
-134 c2 -12 -3 -17 -17 -17 -15 0 -21 6 -21 21 0 25 33 22 38 -4z m-918 -27
c0 -5 -9 -10 -19 -10 -11 0 -23 5 -26 10 -4 6 5 10 19 10 14 0 26 -4 26 -10z
m980 6 c0 -3 -4 -8 -10 -11 -5 -3 -10 -1 -10 4 0 6 5 11 10 11 6 0 10 -2 10
-4z m-1523 -40 c82 -29 203 -91 274 -143 47 -34 60 -55 39 -68 -5 -3 -10 -2
-10 2 0 5 -19 18 -43 30 -36 17 -46 19 -61 8 -18 -14 -65 -5 -94 18 -7 5 -27
10 -45 9 -17 0 -36 3 -42 8 -25 20 -427 57 -492 45 -42 -8 -43 7 0 37 17 12
41 34 53 47 28 32 81 41 229 36 96 -3 134 -8 192 -29z m807 -21 c3 -8 1 -15
-4 -15 -6 0 -10 7 -10 15 0 8 2 15 4 15 2 0 6 -7 10 -15z m696 -11 c0 -15 10
-36 23 -48 20 -19 22 -28 19 -108 l-3 -88 -30 0 -29 0 0 -80 0 -80 -30 0 c-28
0 -30 3 -30 36 0 47 -19 64 -72 64 -67 0 -88 9 -88 36 0 13 -4 24 -10 24 -5 0
-10 23 -10 50 0 64 18 66 22 3 3 -48 3 -48 41 -51 l37 -3 0 80 0 81 70 0 70 0
0 55 c0 30 5 55 10 55 6 0 10 -12 10 -26z m-2095 -84 c-3 -5 -11 -10 -16 -10
-6 0 -7 5 -4 10 3 6 11 10 16 10 6 0 7 -4 4 -10z m-241 -14 c-8 -22 15 -30 35
-12 10 9 35 19 54 23 l36 6 -9 -34 c-17 -61 -81 -99 -110 -65 -14 18 -37 11
-43 -12 -3 -11 -5 -8 -6 8 -1 20 -3 22 -11 10 -8 -11 -9 -7 -4 15 7 30 40 75
55 75 5 0 6 -6 3 -14z m2096 -6 c0 -11 -4 -20 -10 -20 -5 0 -10 9 -10 20 0 11
5 20 10 20 6 0 10 -9 10 -20z m-447 -30 l-7 -25 -6 25 c-8 28 -2 46 11 33 5
-5 5 -20 2 -33z m-985 -68 c2 -7 -3 -12 -12 -12 -9 0 -16 7 -16 16 0 17 22 14
28 -4z m-493 -23 c10 -15 -1 -23 -20 -15 -9 3 -13 10 -10 16 8 13 22 13 30 -1z
m1495 -35 c0 -8 -5 -12 -10 -9 -6 4 -8 11 -5 16 9 14 15 11 15 -7z m-3 -106
c-3 -8 -6 -5 -6 6 -1 11 2 17 5 13 3 -3 4 -12 1 -19z m3 -40 c0 -18 -2 -20 -9
-8 -6 8 -7 18 -5 22 9 14 14 9 14 -14z m-643 -113 c0 -8 -4 -15 -9 -15 -4 0
-8 7 -8 15 0 8 4 15 8 15 5 0 9 -7 9 -15z m-4791 -335 c35 -21 82 -40 103 -44
65 -10 76 -32 73 -149 -4 -156 -18 -228 -36 -181 -7 19 -22 11 -29 -16 -4 -17
-1 -20 21 -18 24 3 26 -1 29 -35 2 -22 -4 -52 -16 -75 -14 -28 -19 -53 -16
-93 2 -30 4 -60 4 -66 1 -7 7 -13 15 -13 20 0 26 -23 26 -100 0 -71 -9 -90
-30 -65 -13 16 -40 20 -40 7 0 -4 16 -25 35 -46 21 -23 35 -49 35 -65 0 -14 9
-45 19 -67 24 -53 11 -73 -29 -44 -51 36 -170 43 -170 10 0 -3 38 -21 84 -38
67 -26 85 -37 90 -56 3 -14 17 -37 29 -53 13 -15 27 -41 30 -58 4 -16 16 -63
27 -104 11 -42 20 -106 20 -146 0 -60 -4 -77 -27 -113 -15 -23 -45 -51 -69
-64 -40 -21 -47 -22 -121 -11 -43 6 -91 19 -108 27 -16 9 -36 16 -42 16 -22 0
-107 68 -132 105 -20 30 -24 49 -25 113 0 55 5 86 17 107 19 34 22 87 7 116
-14 26 -27 24 -34 -6 -4 -14 -11 -25 -16 -25 -21 0 -32 88 -28 215 5 141 -2
238 -31 385 -11 52 -24 150 -31 217 -11 107 -10 128 5 178 23 81 36 60 45 -77
5 -62 13 -126 20 -143 35 -91 55 -424 31 -525 -15 -65 -14 -110 3 -110 24 0
29 -31 6 -37 -27 -7 -21 -25 10 -30 14 -2 37 -17 52 -33 58 -64 78 -22 28 57
-30 47 -30 47 -30 197 1 83 7 230 14 326 9 113 10 186 4 208 -5 19 -7 41 -3
50 6 15 8 15 21 -2 8 -11 14 -28 14 -39 0 -44 25 -5 47 74 17 59 34 93 55 116
24 25 29 37 24 57 -7 27 -53 76 -72 76 -5 0 -23 14 -39 30 -16 17 -32 30 -37
30 -13 0 -66 -62 -83 -98 -9 -18 -20 -30 -26 -27 -5 4 -9 2 -9 -4 0 -6 -6 -8
-14 -5 -8 3 -17 1 -21 -5 -9 -15 -25 -14 -25 2 0 19 44 122 64 148 14 20 16
20 10 4 -4 -11 -7 -33 -6 -48 1 -15 -4 -30 -11 -33 -15 -5 -21 -54 -7 -54 13
0 36 38 44 72 7 32 74 104 102 110 52 12 88 4 150 -32z m-142 -256 c7 -18 0
-34 -15 -34 -5 0 -9 11 -9 25 0 28 15 34 24 9z m5702 -1229 c27 -80 29 -102
12 -159 -13 -44 -37 -82 -68 -103 -18 -12 -20 -10 -30 29 -12 44 -6 81 26 157
10 22 13 48 8 77 -7 48 0 78 17 72 6 -2 22 -35 35 -73z m-951 -1055 c0 -7 -6
-15 -12 -17 -8 -3 -13 4 -13 17 0 13 5 20 13 18 6 -3 12 -11 12 -18z m-3142
-658 c-6 -23 -24 -25 -31 -4 -2 7 3 12 12 12 9 0 16 5 16 12 0 6 2 9 5 7 2 -3
2 -15 -2 -27z m274 12 c-3 -3 -12 -4 -19 -1 -8 3 -5 6 6 6 11 1 17 -2 13 -5z
m-837 -635 c0 -11 -4 -17 -10 -14 -5 3 -10 13 -10 21 0 8 5 14 10 14 6 0 10
-9 10 -21z m530 -29 c0 -5 -5 -10 -11 -10 -5 0 -7 5 -4 10 3 6 8 10 11 10 2 0
4 -4 4 -10z m303 -157 c-7 -2 -19 -2 -25 0 -7 3 -2 5 12 5 14 0 19 -2 13 -5z
m204 -145 c-3 -8 -6 -5 -6 6 -1 11 2 17 5 13 3 -3 4 -12 1 -19z m2303 -36 c-7
-3 -16 2 -21 9 -16 25 -9 32 12 13 13 -12 16 -20 9 -22z m147 -124 c-2 -13 -4
-5 -4 17 -1 22 1 32 4 23 2 -10 2 -28 0 -40z m-2069 -20 c-3 -7 -14 -14 -26
-16 -16 -3 -20 1 -16 12 7 19 48 22 42 4z m-58 -18 c0 -5 -4 -10 -10 -10 -5 0
-10 5 -10 10 0 6 5 10 10 10 6 0 10 -4 10 -10z m194 -148 c-3 -10 -16 -18 -31
-19 l-25 -1 23 23 c27 25 40 24 33 -3z m123 6 c-3 -8 -6 -5 -6 6 -1 11 2 17 5
13 3 -3 4 -12 1 -19z m1353 -18 c-12 -7 -12 -12 5 -29 21 -24 13 -40 -10 -21
-24 20 -18 60 9 60 6 0 4 -4 -4 -10z m-1273 -62 c-3 -8 -6 -5 -6 6 -1 11 2 17
5 13 3 -3 4 -12 1 -19z m1553 -8 c0 -5 -5 -10 -11 -10 -5 0 -7 5 -4 10 3 6 8
10 11 10 2 0 4 -4 4 -10z m-50 -20 c0 -5 -5 -10 -11 -10 -5 0 -7 5 -4 10 3 6
8 10 11 10 2 0 4 -4 4 -10z m-1360 -84 c-6 -6 -15 -4 -24 4 -22 17 -9 32 14
18 12 -8 16 -16 10 -22z m1415 4 c16 -17 16 -20 2 -20 -9 0 -19 5 -23 11 -3 6
-17 8 -29 5 -13 -3 -26 -2 -30 3 -5 8 12 15 51 20 6 0 19 -8 29 -19z m-1143
-15 c-6 -32 -20 -32 -18 0 0 14 6 25 12 25 7 0 9 -10 6 -25z m-42 5 c0 -5 -4
-10 -10 -10 -5 0 -10 5 -10 10 0 6 5 10 10 10 6 0 10 -4 10 -10z m400 -20 c0
-5 -4 -10 -10 -10 -5 0 -10 5 -10 10 0 6 5 10 10 10 6 0 10 -4 10 -10z m607
-36 c-9 -10 -38 16 -31 28 4 6 13 4 22 -6 9 -8 13 -19 9 -22z m147 -20 c3 -8
2 -12 -4 -9 -6 3 -10 10 -10 16 0 14 7 11 14 -7z m-299 -714 c-3 -5 -13 -10
-21 -10 -8 0 -14 5 -14 10 0 6 9 10 21 10 11 0 17 -4 14 -10z m-49 -66 c-3 -9
-6 -31 -6 -50 0 -19 -4 -34 -10 -34 -11 0 -14 83 -3 93 12 13 25 7 19 -9z
m4124 -7612 c0 -15 -2 -15 -10 -2 -13 20 -13 33 0 25 6 -3 10 -14 10 -23z
m3646 -29 c-10 -10 -19 5 -10 18 6 11 8 11 12 0 2 -7 1 -15 -2 -18z m-139 -95
c-3 -7 -5 -2 -5 12 0 14 2 19 5 13 2 -7 2 -19 0 -25z m-117 -223 c0 -10 10
-15 28 -15 27 0 72 -31 72 -50 0 -5 -8 -14 -17 -19 -17 -10 -17 -10 0 -11 10
0 22 10 27 23 8 19 9 18 9 -14 1 -29 -4 -38 -24 -47 -31 -14 -45 -15 -45 -3 0
14 -42 56 -62 64 -10 3 -18 15 -18 26 0 11 -6 21 -12 24 -10 3 -10 7 1 20 17
21 41 22 41 2z m-270 -142 c0 -29 -3 -33 -19 -28 -10 3 -24 -1 -31 -10 -14
-17 -50 -21 -50 -5 0 6 11 10 25 10 16 0 25 6 25 15 0 9 10 20 23 25 18 7 18
9 4 9 -22 1 -15 18 8 18 10 0 15 -10 15 -34z m406 -23 c8 0 14 -9 13 -22 -1
-17 -2 -19 -6 -5 -2 9 -11 17 -20 17 -10 0 -13 -6 -8 -17 4 -12 3 -15 -4 -8
-6 6 -7 21 -4 35 4 13 8 19 11 12 2 -6 10 -12 18 -12z m-86 -50 c-13 -11 -26
-17 -29 -14 -7 6 28 34 42 34 6 0 0 -9 -13 -20z m-407 4 c-7 -3 -9 -12 -6 -20
4 -10 0 -12 -11 -8 -27 10 -14 32 19 32 6 0 5 -2 -2 -4z m447 -18 c0 -3 -4 -8
-10 -11 -5 -3 -10 -1 -10 4 0 6 5 11 10 11 6 0 10 -2 10 -4z m-1460 -47 c0 -5
-7 -9 -15 -9 -15 0 -20 12 -9 23 8 8 24 -1 24 -14z m1014 0 c-7 -11 -34 -12
-34 -1 0 14 11 21 26 15 8 -3 11 -9 8 -14z m426 11 c0 -5 -5 -10 -11 -10 -5 0
-7 5 -4 10 3 6 8 10 11 10 2 0 4 -4 4 -10z m-2343 -15 c-4 -8 -2 -17 3 -20 6
-4 10 -1 10 4 0 6 4 11 8 11 4 0 8 -15 9 -34 1 -33 0 -34 -35 -32 -39 1 -53
28 -24 46 13 7 14 9 3 10 -11 0 -9 4 5 15 24 18 27 18 21 0z m1678 -15 c3 -5
1 -10 -4 -10 -6 0 -11 5 -11 10 0 6 2 10 4 10 3 0 8 -4 11 -10z m52 -14 c-9
-7 -17 -18 -17 -25 0 -6 -4 -11 -10 -11 -5 0 -10 4 -10 10 0 13 42 51 49 44 3
-3 -2 -11 -12 -18z m100 2 c-3 -8 -6 -5 -6 6 -1 11 2 17 5 13 3 -3 4 -12 1
-19z m-947 -3 c0 -8 -4 -15 -10 -15 -5 0 -10 7 -10 15 0 8 5 15 10 15 6 0 10
-7 10 -15z m910 5 c0 -5 -7 -10 -16 -10 -8 0 -12 5 -9 10 3 6 10 10 16 10 5 0
9 -4 9 -10z m-190 -19 c0 -6 -4 -13 -10 -16 -5 -3 -10 1 -10 9 0 9 5 16 10 16
6 0 10 -4 10 -9z m-153 -47 c-3 -3 -12 -4 -19 -1 -8 3 -5 6 6 6 11 1 17 -2 13
-5z m-937 -403 c0 -6 -4 -13 -10 -16 -5 -3 -10 1 -10 9 0 9 5 16 10 16 6 0 10
-4 10 -9z m-255 -61 c3 -5 1 -10 -4 -10 -6 0 -11 5 -11 10 0 6 2 10 4 10 3 0
8 -4 11 -10z m275 0 c0 -5 -4 -10 -10 -10 -5 0 -10 5 -10 10 0 6 5 10 10 10 6
0 10 -4 10 -10z"/>
<path d="M3681 20628 c0 -7 4 -22 9 -33 7 -17 9 -15 9 13 1 17 -3 32 -9 32 -5
0 -10 -6 -9 -12z"/>
<path d="M3986 20495 c-3 -8 -1 -15 4 -15 6 0 10 7 10 15 0 8 -2 15 -4 15 -2
0 -6 -7 -10 -15z"/>
<path d="M3760 17182 c0 -12 -4 -22 -10 -22 -5 0 -10 -9 -10 -19 0 -11 -4 -23
-10 -26 -5 -3 -10 -40 -10 -81 0 -59 -3 -74 -15 -74 -12 0 -15 -16 -15 -80 0
-79 0 -80 25 -80 23 0 25 4 25 40 0 22 4 40 9 40 10 0 26 308 17 317 -3 4 -6
-3 -6 -15z"/>
<path d="M4233 16680 c0 -25 2 -35 4 -22 2 12 2 32 0 45 -2 12 -4 2 -4 -23z"/>
<path d="M3720 16630 c0 -5 5 -10 10 -10 6 0 10 -9 10 -20 0 -11 5 -20 10 -20
6 0 10 14 10 30 0 23 -4 30 -20 30 -11 0 -20 -4 -20 -10z"/>
<path d="M3740 15876 c0 -20 5 -36 10 -36 6 0 10 -33 10 -80 0 -79 0 -80 25
-80 29 0 30 5 10 53 -8 20 -15 52 -15 72 0 19 -4 35 -10 35 -5 0 -10 13 -10
29 0 17 -4 33 -10 36 -6 4 -10 -8 -10 -29z"/>
<path d="M7776 16164 c-42 -11 -126 -16 -201 -13 -37 2 -220 -38 -250 -55 -33
-17 -126 -22 -154 -7 -11 7 -46 5 -98 -3 -71 -11 -84 -11 -107 3 -14 9 -26 24
-26 33 0 27 -31 22 -107 -16 -190 -94 -266 -152 -388 -294 -49 -57 -60 -98
-24 -87 19 6 20 4 14 -29 -9 -47 9 -48 76 -1 28 19 58 35 67 35 8 0 43 15 76
34 34 19 87 42 119 51 32 9 73 29 90 44 48 42 65 47 157 43 47 -1 114 -4 150
-5 36 -1 90 -10 120 -19 30 -9 74 -21 96 -27 23 -6 52 -22 65 -35 13 -13 44
-29 67 -36 24 -6 57 -24 74 -41 17 -16 38 -29 48 -29 9 0 25 -7 36 -15 10 -8
33 -15 50 -15 18 0 39 -8 50 -21 10 -12 38 -32 62 -46 48 -28 63 -64 39 -91
-9 -9 -17 -21 -19 -27 -2 -5 -14 -8 -28 -7 -58 9 -456 5 -472 -4 -11 -6 31 -9
125 -10 152 -2 272 -20 349 -53 74 -31 157 -88 170 -116 6 -13 26 -31 45 -40
39 -19 36 -20 115 55 34 32 37 39 33 78 -3 23 0 42 5 42 6 0 8 16 4 40 l-7 40
42 0 c34 0 42 4 47 24 3 13 19 33 35 45 16 12 29 30 29 40 0 10 13 36 28 57
29 39 30 62 6 77 -22 13 -16 63 11 95 36 43 33 68 -10 82 -31 10 -35 16 -35
46 0 24 -5 34 -15 34 -8 0 -15 7 -15 15 0 8 -7 32 -17 53 -12 29 -27 44 -62
60 l-46 21 -19 -21 c-16 -18 -18 -25 -8 -52 22 -60 11 -61 -66 -4 -97 72 -220
99 -326 72z m127 -20 c11 -11 -3 -24 -18 -18 -8 4 -12 10 -9 15 6 11 18 12 27
3z"/>
<path d="M7160 15448 c-51 -21 -67 -27 -130 -43 -144 -38 -333 -156 -301 -188
13 -13 53 5 145 67 69 45 213 118 271 136 22 7 45 16 50 20 6 5 24 10 40 13
25 3 23 4 -10 5 -22 0 -51 -4 -65 -10z"/>
<path d="M7385 15349 c-85 -5 -138 -13 -180 -29 -33 -12 -76 -25 -95 -29 -19
-4 -44 -13 -55 -19 -11 -6 -47 -16 -80 -22 -75 -14 -124 -25 -152 -34 -29 -10
-70 -99 -74 -162 l-4 -49 50 -8 c60 -9 354 -29 373 -25 7 2 -4 12 -25 22 -21
11 -66 38 -99 60 l-61 40 21 21 c11 13 49 39 84 59 l62 36 20 -33 c11 -17 20
-36 20 -41 0 -18 51 -75 99 -110 67 -50 135 -59 194 -26 23 13 52 32 65 43 36
33 72 102 78 151 9 60 27 76 57 49 34 -30 83 -46 120 -39 45 8 67 -1 67 -29 0
-13 5 -27 10 -30 6 -3 10 -15 10 -26 0 -13 -7 -19 -23 -19 -12 0 -28 -9 -35
-20 -7 -12 -23 -25 -35 -30 -21 -8 -21 -9 -1 -9 11 -1 24 2 28 7 4 4 47 7 94
8 62 0 105 7 148 22 52 18 66 19 92 10 17 -7 34 -9 37 -6 8 8 -22 68 -34 68
-5 0 -27 18 -49 40 -22 22 -48 40 -59 40 -10 0 -37 9 -58 20 -22 12 -69 28
-105 37 -36 9 -70 20 -76 25 -10 7 -171 32 -274 41 -19 2 -89 0 -155 -4z m-45
-149 c-19 -13 -30 -13 -30 0 0 6 10 10 23 10 18 0 19 -2 7 -10z m654 -40 c62
-23 7 -62 -58 -40 -31 10 -35 14 -26 31 12 21 44 25 84 9z"/>
<path d="M9536 14879 c25 -28 71 -51 79 -40 3 5 2 12 -2 14 -35 21 -85 47 -90
47 -3 0 2 -9 13 -21z"/>
<path d="M10845 14720 c-3 -5 -3 -15 1 -21 6 -11 23 6 24 24 0 10 -18 9 -25
-3z"/>
<path d="M9269 14268 c-1 -7 -1 -16 -1 -19 1 -4 -12 -12 -28 -19 -16 -7 -32
-20 -35 -29 -3 -10 -14 -26 -24 -37 -25 -26 -101 -89 -109 -90 -4 0 -20 -6
-35 -12 -16 -7 -33 -12 -39 -12 -6 0 -17 -8 -24 -17 -8 -11 -13 -13 -14 -5 0
18 -29 15 -57 -8 -30 -24 -40 -19 -60 28 -21 49 -70 109 -102 121 -66 26 -93
23 -176 -18 -114 -56 -191 -121 -221 -184 -13 -29 -24 -61 -24 -71 0 -11 -12
-35 -26 -54 -26 -33 -28 -34 -85 -30 -33 2 -59 1 -59 -3 0 -15 65 -72 97 -85
18 -8 66 -14 106 -14 54 0 78 -4 87 -15 9 -11 17 -12 30 -5 24 13 30 13 30 -1
0 -18 -26 -37 -56 -41 -22 -2 -30 -9 -34 -30 -3 -18 -20 -37 -52 -59 -27 -17
-48 -37 -48 -45 0 -7 -9 -18 -20 -24 -11 -6 -20 -20 -20 -30 0 -12 -7 -20 -16
-20 -12 0 -14 -7 -10 -27 9 -42 -6 -60 -38 -45 -31 14 -81 1 -108 -28 -10 -11
-25 -20 -32 -20 -8 0 -17 -16 -20 -35 -8 -43 -21 -45 -29 -5 -8 39 -26 38 -34
-1 -4 -20 -21 -41 -50 -64 -41 -31 -47 -33 -67 -20 -33 22 -148 13 -183 -15
-16 -12 -47 -35 -70 -53 -33 -23 -43 -38 -43 -58 0 -15 -5 -31 -11 -34 -6 -4
-8 -22 -4 -45 6 -38 -15 -100 -34 -100 -4 0 -6 -11 -4 -24 3 -13 0 -27 -6 -30
-6 -4 -11 -30 -11 -58 0 -42 5 -55 26 -75 17 -15 33 -22 45 -18 14 5 17 2 13
-9 -3 -9 -1 -16 5 -16 6 0 11 -7 11 -15 0 -30 31 -28 62 4 17 17 57 43 89 57
32 14 66 35 75 45 23 25 98 25 148 0 34 -18 69 -25 103 -22 7 1 19 17 28 35
19 39 12 64 -11 45 -12 -10 -18 -9 -31 4 -13 13 -14 19 -3 31 7 9 24 16 37 16
20 0 24 -4 19 -17 -4 -9 4 -5 19 11 14 15 25 30 25 34 0 11 84 59 151 87 52
22 79 26 207 30 81 3 212 10 292 16 131 10 158 9 280 -10 193 -30 215 -35 260
-65 22 -14 43 -26 48 -26 4 0 22 -15 40 -33 l32 -33 -36 4 c-29 4 -36 1 -41
-17 -4 -15 -11 -20 -23 -16 -9 3 -22 -1 -29 -9 -7 -8 -24 -17 -39 -21 -15 -3
-44 -17 -64 -31 -21 -13 -41 -24 -44 -24 -14 0 -100 -46 -127 -67 -23 -18 -41
-23 -90 -23 -34 0 -73 -6 -87 -13 -29 -15 -157 -21 -174 -8 -23 18 -125 41
-132 30 -8 -14 -19 -11 -44 11 -26 22 -32 24 -46 11 -15 -14 -54 6 -54 29 0
21 -14 27 -25 11 -6 -11 -57 -6 -83 8 -10 5 -38 11 -62 13 -32 1 -44 7 -48 20
-4 17 -7 17 -21 4 -9 -7 -25 -16 -35 -17 -11 -2 -21 -9 -23 -14 -3 -11 51 -35
80 -35 10 0 17 -8 17 -19 0 -13 5 -18 18 -14 21 5 76 -42 67 -57 -3 -6 -28
-10 -55 -10 -41 0 -52 -4 -65 -24 -14 -21 -14 -31 -4 -68 11 -40 51 -88 74
-88 6 0 24 -7 40 -16 45 -24 281 -37 680 -37 50 0 108 5 130 11 22 6 77 12
122 13 48 1 94 7 110 16 15 7 56 16 91 18 36 2 68 8 71 13 3 5 14 11 24 15 9
4 16 10 15 14 -5 19 14 51 37 63 14 7 25 21 25 31 0 9 9 19 21 22 12 3 18 10
14 16 -3 6 1 11 9 11 9 0 16 6 16 13 0 19 88 21 124 2 15 -8 37 -15 47 -15 11
0 19 -4 19 -10 0 -16 27 -12 34 5 3 10 16 15 34 13 38 -3 50 7 58 47 3 19 12
35 19 35 21 0 37 75 25 119 -6 21 -10 59 -9 83 2 32 -8 62 -36 117 -60 120
-99 161 -153 161 -11 0 -45 25 -77 56 -54 52 -138 104 -167 104 -7 0 -36 17
-64 39 -28 21 -58 42 -66 47 -21 12 -87 97 -121 157 -26 43 -27 48 -10 53 41
12 83 34 83 42 0 5 27 35 60 68 67 66 76 87 31 78 -20 -4 -30 -1 -34 10 -3 8
-2 18 3 21 27 17 -19 168 -56 182 -7 3 -14 11 -14 19 0 8 -4 14 -10 14 -5 0
-19 9 -30 20 -11 11 -17 20 -13 20 3 0 -1 8 -9 18 -8 9 -18 39 -22 65 -3 26
-10 57 -16 67 -12 22 -39 27 -41 8z m-513 -249 c3 -6 -5 -22 -20 -35 -31 -30
-33 -56 -6 -99 23 -37 48 -51 64 -35 5 5 22 10 37 10 15 0 31 5 34 10 12 20
52 10 78 -20 22 -24 35 -30 70 -30 53 -1 74 -16 82 -62 8 -41 -8 -79 -50 -118
-41 -38 -54 -71 -48 -117 l5 -41 -43 -7 c-24 -3 -70 -4 -101 -1 -32 2 -58 0
-58 -5 0 -10 65 -23 78 -15 6 3 13 -1 16 -10 5 -13 17 -14 73 -8 38 4 87 15
111 25 24 11 51 19 59 19 9 0 38 -21 65 -46 26 -25 66 -53 87 -63 41 -18 126
-89 118 -98 -5 -4 -66 22 -107 45 -68 39 -120 61 -139 57 -66 -13 -81 -30 -33
-41 79 -17 144 -52 114 -62 -18 -6 -14 -40 6 -51 12 -7 14 -13 6 -21 -7 -7
-23 -6 -53 5 -61 21 -81 20 -81 -7 0 -17 -3 -19 -12 -10 -7 7 -29 12 -49 12
l-37 0 3 -42 c2 -34 -1 -45 -20 -60 -21 -16 -26 -17 -70 -2 -44 16 -50 15
-123 -5 -42 -12 -93 -22 -112 -22 -126 0 -236 -10 -310 -28 -47 -11 -96 -21
-110 -21 -32 0 -60 31 -75 85 -7 23 -19 41 -29 43 -9 2 -39 -11 -66 -28 -64
-41 -96 -38 -93 8 1 38 24 68 58 76 13 3 27 15 30 26 3 11 18 23 33 26 15 4
41 21 58 39 17 18 53 45 80 60 27 15 51 30 54 34 3 4 31 13 63 20 32 7 96 32
142 56 82 42 86 43 147 35 35 -4 63 -7 63 -6 0 1 13 15 29 33 27 30 28 34 16
63 -7 17 -18 28 -24 25 -6 -3 -19 -8 -28 -11 -10 -4 -18 -10 -18 -15 0 -5 -6
-9 -14 -9 -9 0 -16 12 -18 33 -3 28 -6 32 -30 29 -16 -1 -28 2 -28 8 0 5 -11
20 -25 32 -14 12 -25 30 -25 40 0 11 -7 18 -20 18 -16 0 -18 5 -15 33 7 51 -8
91 -35 97 -32 8 -36 26 -8 41 13 6 26 18 31 25 4 7 24 18 45 25 20 6 48 19 62
28 53 34 66 40 87 40 12 1 25 -4 29 -10z m-196 -464 c0 -8 -4 -15 -10 -15 -5
0 -10 7 -10 15 0 8 5 15 10 15 6 0 10 -7 10 -15z m640 -434 c0 -27 -1 -28 -25
-18 -35 17 -35 18 23 46 1 0 2 -12 2 -28z m459 -374 c-2 -1 -11 -8 -20 -15
-14 -10 -18 -10 -23 3 -4 11 1 15 21 15 14 0 24 -1 22 -3z m-1202 -163 c-3 -3
-12 -4 -19 -1 -8 3 -5 6 6 6 11 1 17 -2 13 -5z"/>
<path d="M8842 13548 c7 -19 38 -22 38 -4 0 10 -9 16 -21 16 -12 0 -19 -5 -17
-12z"/>
<path d="M8183 13433 c-18 -6 -16 -23 1 -23 17 0 30 16 19 23 -5 2 -14 2 -20
0z"/>
<path d="M10725 12830 c3 -5 8 -10 11 -10 2 0 4 5 4 10 0 6 -5 10 -11 10 -5 0
-7 -4 -4 -10z"/>
<path d="M10750 12710 c0 -5 7 -10 15 -10 8 0 15 5 15 10 0 6 -7 10 -15 10 -8
0 -15 -4 -15 -10z"/>
<path d="M10606 12275 c-3 -8 -1 -15 4 -15 6 0 10 7 10 15 0 8 -2 15 -4 15 -2
0 -6 -7 -10 -15z"/>
<path d="M10320 12170 c0 -5 5 -10 11 -10 5 0 7 5 4 10 -3 6 -8 10 -11 10 -2
0 -4 -4 -4 -10z"/>
<path d="M10400 12128 c0 -17 2 -18 15 -8 8 7 15 14 15 15 0 2 -7 5 -15 9 -10
4 -15 -1 -15 -16z"/>
<path d="M6565 11600 c-3 -6 1 -7 9 -4 18 7 21 14 7 14 -6 0 -13 -4 -16 -10z"/>
<path d="M6595 11575 c-16 -7 -23 -14 -15 -14 25 -1 60 11 60 20 0 12 -9 11
-45 -6z"/>
<path d="M6714 11535 c3 -8 0 -15 -6 -15 -6 0 -9 -2 -6 -5 3 -3 13 -3 22 1 21
8 21 34 0 34 -10 0 -14 -6 -10 -15z"/>
<path d="M7225 11490 c-3 -6 5 -10 19 -10 13 0 27 -6 29 -12 4 -8 6 -7 6 3 1
24 -42 39 -54 19z"/>
<path d="M7120 11460 c0 -5 6 -10 13 -10 7 0 18 -9 25 -20 7 -11 17 -20 22
-20 17 0 11 25 -10 43 -22 19 -50 23 -50 7z"/>
<path d="M7280 11410 c0 -13 5 -20 13 -17 6 2 12 10 12 17 0 7 -6 15 -12 18
-8 2 -13 -5 -13 -18z"/>
<path d="M7043 11396 c4 -10 1 -13 -7 -10 -19 7 -32 -16 -16 -26 8 -5 24 -4
37 1 32 12 46 11 38 -1 -3 -5 1 -10 9 -10 9 0 16 -6 16 -12 1 -7 10 -2 21 12
l21 25 -32 6 c-17 4 -37 12 -43 18 -17 17 -50 14 -44 -3z"/>
<path d="M6721 11384 c0 -11 3 -14 6 -6 3 7 2 16 -1 19 -3 4 -6 -2 -5 -13z"/>
<path d="M6740 11318 c11 -12 23 -19 26 -15 9 9 -15 37 -33 37 -10 0 -8 -6 7
-22z"/>
<path d="M6791 11311 c-9 -6 -10 -11 -2 -15 13 -8 31 1 31 15 0 11 -11 11 -29
0z"/>
<path d="M5592 13630 c0 -14 2 -19 5 -12 2 6 2 18 0 25 -3 6 -5 1 -5 -13z"/>
<path d="M6996 10465 c4 -8 10 -12 15 -9 14 8 10 24 -6 24 -9 0 -12 -6 -9 -15z"/>
<path d="M7267 10350 c3 -11 7 -20 9 -20 2 0 4 9 4 20 0 11 -4 20 -9 20 -5 0
-7 -9 -4 -20z"/>
<path d="M7470 10201 c0 -12 29 -35 36 -28 11 10 -5 37 -21 37 -8 0 -15 -4
-15 -9z"/>
<path d="M7520 10155 c0 -11 7 -15 23 -13 12 2 22 8 22 13 0 6 -10 11 -22 13
-16 2 -23 -2 -23 -13z"/>
<path d="M7818 9983 c7 -3 16 -2 19 1 4 3 -2 6 -13 5 -11 0 -14 -3 -6 -6z"/>
<path d="M8020 9740 c0 -5 5 -10 10 -10 6 0 10 5 10 10 0 6 -4 10 -10 10 -5 0
-10 -4 -10 -10z"/>
<path d="M9222 9711 c2 -7 7 -12 11 -12 12 1 9 15 -3 20 -7 2 -11 -2 -8 -8z"/>
<path d="M9170 9690 c0 -5 5 -10 11 -10 5 0 7 5 4 10 -3 6 -8 10 -11 10 -2 0
-4 -4 -4 -10z"/>
<path d="M9205 9669 c-4 -6 -5 -11 -4 -13 58 -39 79 -44 79 -21 0 8 -9 15 -20
15 -11 0 -23 7 -26 15 -7 18 -20 19 -29 4z"/>
<path d="M9490 9589 c0 -5 5 -7 10 -4 6 3 10 8 10 11 0 2 -4 4 -10 4 -5 0 -10
-5 -10 -11z"/>
<path d="M9520 9550 c0 -5 5 -10 10 -10 6 0 10 5 10 10 0 6 -4 10 -10 10 -5 0
-10 -4 -10 -10z"/>
<path d="M9347 9405 c-9 -22 6 -25 27 -4 19 19 19 19 -1 19 -12 0 -23 -7 -26
-15z"/>
<path d="M9265 9320 c3 -5 8 -10 11 -10 2 0 4 5 4 10 0 6 -5 10 -11 10 -5 0
-7 -4 -4 -10z"/>
<path d="M9150 9290 c0 -5 5 -10 11 -10 5 0 7 5 4 10 -3 6 -8 10 -11 10 -2 0
-4 -4 -4 -10z"/>
<path d="M9030 9252 c0 -14 11 -21 26 -15 21 8 17 23 -6 23 -11 0 -20 -4 -20
-8z"/>
<path d="M8226 9192 c-8 -14 7 -26 79 -61 39 -19 94 -50 123 -69 28 -19 55
-33 58 -30 9 10 -76 64 -223 143 -13 7 -20 15 -16 18 3 4 1 7 -5 7 -6 0 -13
-4 -16 -8z"/>
<path d="M9267 9033 c-14 -14 -6 -23 21 -22 16 0 21 3 12 6 -8 3 -18 10 -21
15 -3 4 -8 5 -12 1z"/>
<path d="M8594 8934 c43 -45 87 -96 98 -113 11 -18 23 -30 25 -27 11 10 -30
65 -89 121 -102 97 -119 106 -34 19z"/>
<path d="M9215 8779 c-10 -15 3 -25 16 -12 7 7 7 13 1 17 -6 3 -14 1 -17 -5z"/>
<path d="M8740 8762 c0 -7 5 -23 12 -35 6 -12 15 -35 19 -52 l7 -30 1 30 c0
17 -8 46 -19 65 -11 19 -19 29 -20 22z"/>
<path d="M8770 8620 c0 -11 4 -20 9 -20 5 0 7 9 4 20 -3 11 -7 20 -9 20 -2 0
-4 -9 -4 -20z"/>
<path d="M8780 8548 c0 -19 5 -39 10 -44 6 -6 11 -59 11 -120 0 -91 13 -205
35 -311 3 -15 12 -23 25 -23 16 0 19 3 11 13 -12 14 -27 85 -23 106 1 8 -2 17
-8 20 -6 4 -12 70 -15 155 -4 102 -10 158 -21 178 -8 17 -12 34 -10 39 3 4 1
10 -5 14 -6 4 -10 -7 -10 -27z"/>
<path d="M13625 7045 c9 -168 15 -238 20 -244 9 -9 -8 334 -17 344 -6 6 -7
-31 -3 -100z"/>
<path d="M4921 6554 c0 -11 3 -14 6 -6 3 7 2 16 -1 19 -3 4 -6 -2 -5 -13z"/>
<path d="M8720 5841 c0 -6 4 -13 10 -16 6 -3 7 1 4 9 -7 18 -14 21 -14 7z"/>
<path d="M8800 5606 c0 -22 3 -27 11 -19 8 8 8 16 0 30 -9 16 -10 14 -11 -11z"/>
<path d="M13601 4545 c-1 -11 -4 -30 -7 -42 -5 -18 -2 -23 14 -23 11 0 29 3
39 7 16 6 15 8 -7 13 -17 4 -27 15 -31 35 -4 19 -7 23 -8 10z"/>
<path d="M3332 4150 c0 -14 2 -19 5 -12 2 6 2 18 0 25 -3 6 -5 1 -5 -13z"/>
<path d="M14010 4129 c0 -11 5 -17 10 -14 6 3 10 13 10 21 0 8 -4 14 -10 14
-5 0 -10 -9 -10 -21z"/>
<path d="M13970 3999 c0 -5 5 -7 10 -4 6 3 10 8 10 11 0 2 -4 4 -10 4 -5 0
-10 -5 -10 -11z"/>
<path d="M9081 3974 c0 -11 3 -14 6 -6 3 7 2 16 -1 19 -3 4 -6 -2 -5 -13z"/>
<path d="M13926 3863 c-12 -12 -6 -33 9 -33 8 0 15 6 15 14 0 17 -14 28 -24
19z"/>
<path d="M3334 3769 c-3 -6 -1 -16 5 -22 8 -8 11 -5 11 11 0 24 -5 28 -16 11z"/>
<path d="M9132 3710 c0 -19 2 -27 5 -17 2 9 2 25 0 35 -3 9 -5 1 -5 -18z"/>
<path d="M13880 3721 c-5 -11 -10 -28 -10 -38 0 -13 5 -10 20 12 11 17 20 33
20 38 0 14 -20 7 -30 -12z"/>
<path d="M13865 3649 c-10 -15 3 -25 16 -12 7 7 7 13 1 17 -6 3 -14 1 -17 -5z"/>
<path d="M3187 3448 c8 -59 13 -61 13 -5 0 26 -4 47 -9 47 -5 0 -7 -19 -4 -42z"/>
<path d="M3331 3404 c0 -11 3 -14 6 -6 3 7 2 16 -1 19 -3 4 -6 -2 -5 -13z"/>
<path d="M3203 3355 c0 -22 2 -30 4 -17 2 12 2 30 0 40 -3 9 -5 -1 -4 -23z"/>
<path d="M9192 3210 c0 -14 2 -19 5 -12 2 6 2 18 0 25 -3 6 -5 1 -5 -13z"/>
<path d="M9212 3080 c0 -14 2 -19 5 -12 2 6 2 18 0 25 -3 6 -5 1 -5 -13z"/>
<path d="M9222 3015 c0 -16 3 -39 8 -50 l9 -20 -1 20 c0 11 -4 34 -8 50 l-8
30 0 -30z"/>
<path d="M9242 2910 c0 -14 2 -19 5 -12 2 6 2 18 0 25 -3 6 -5 1 -5 -13z"/>
<path d="M9250 2844 c0 -10 5 -26 10 -34 8 -11 9 -7 4 15 -8 37 -14 45 -14 19z"/>
<path d="M13575 2800 c3 -5 8 -10 11 -10 2 0 4 5 4 10 0 6 -5 10 -11 10 -5 0
-7 -4 -4 -10z"/>
<path d="M9271 2735 c0 -11 4 -27 9 -35 9 -13 10 -13 9 0 0 8 -4 24 -9 35 l-9
20 0 -20z"/>
<path d="M13753 2703 c-15 -5 -17 -39 -4 -47 5 -3 11 7 14 22 6 31 6 31 -10
25z"/>
<path d="M9292 2645 c0 -16 2 -22 5 -12 2 9 2 23 0 30 -3 6 -5 -1 -5 -18z"/>
<path d="M9310 2549 c0 -13 5 -31 10 -39 7 -11 8 -5 4 20 -8 43 -14 51 -14 19z"/>
<path d="M4617 2544 c-4 -4 -7 -17 -7 -28 1 -19 1 -20 11 -3 11 19 8 43 -4 31z"/>
<path d="M9333 2380 c0 -25 2 -35 4 -22 2 12 2 32 0 45 -2 12 -4 2 -4 -23z"/>
<path d="M3770 2015 c0 -8 4 -15 10 -15 5 0 7 7 4 15 -4 8 -8 15 -10 15 -2 0
-4 -7 -4 -15z"/>
<path d="M3267 1847 c-4 -10 -7 -28 -7 -40 1 -20 2 -20 11 -4 6 10 9 28 7 40
-3 20 -4 20 -11 4z"/>
<path d="M15570 1780 c0 -5 11 -10 25 -10 14 0 25 5 25 10 0 6 -11 10 -25 10
-14 0 -25 -4 -25 -10z"/>
<path d="M3345 1720 c-4 -6 10 -10 35 -10 25 0 39 4 35 10 -3 6 -19 10 -35 10
-16 0 -32 -4 -35 -10z"/>
<path d="M4342 1697 c-13 -15 -32 -158 -20 -151 7 5 28 71 42 137 7 29 -4 36
-22 14z"/>
<path d="M15663 1600 c26 -21 47 -26 47 -12 0 9 -44 32 -62 32 -6 0 1 -9 15
-20z"/>
<path d="M16898 1603 c-10 -2 -15 -10 -11 -19 3 -8 -1 -21 -8 -30 -11 -14 -10
-18 5 -29 18 -14 46 -10 46 6 0 5 6 9 14 9 9 0 14 12 14 35 0 36 -11 41 -60
28z"/>
<path d="M15573 1483 c-52 -7 -39 -24 15 -21 26 2 46 8 45 13 -2 12 -16 14
-60 8z"/>
<path d="M13455 1420 c3 -5 10 -10 16 -10 5 0 9 5 9 10 0 6 -7 10 -16 10 -8 0
-12 -4 -9 -10z"/>
<path d="M15505 1360 c-12 -20 62 -140 86 -140 15 0 21 42 8 51 -8 5 -9 9 -3
9 6 0 9 10 7 23 -4 20 -26 36 -85 64 -4 2 -10 -1 -13 -7z"/>
<path d="M16440 1229 c0 -7 6 -20 14 -28 16 -19 36 -76 36 -102 0 -11 -7 -19
-17 -19 -12 0 -18 -8 -19 -23 -1 -18 4 -22 30 -23 17 -1 23 0 14 3 -15 4 -14
9 7 49 19 35 22 50 15 75 -5 18 -11 33 -12 34 -2 1 -18 12 -35 24 -21 14 -33
18 -33 10z"/>
<path d="M3258 1208 c-39 -13 -35 -24 17 -47 52 -23 62 -44 14 -31 -35 10 -49
6 -49 -16 0 -21 -11 -17 -49 15 -19 17 -38 28 -41 26 -4 -2 -10 -55 -14 -117
-15 -252 -45 -538 -65 -615 -5 -21 -17 -86 -26 -145 -14 -91 -41 -194 -70
-260 -7 -17 68 -18 1489 -18 1343 0 1495 2 1489 15 -3 10 -1 15 7 13 7 -2 15
3 17 10 3 7 -5 12 -22 12 -14 0 -40 7 -57 16 -38 20 -144 32 -134 16 4 -6 -6
-5 -21 3 -38 20 -56 19 -71 -5 -7 -11 -19 -20 -26 -20 -8 0 -17 -9 -21 -20 -8
-26 -22 -22 -57 17 -16 18 -39 35 -51 39 -12 4 -32 17 -44 30 -26 28 -86 33
-120 9 -26 -18 -77 -17 -117 3 -16 8 -79 64 -140 124 -61 61 -130 124 -153
141 -24 17 -43 34 -43 39 0 4 -7 8 -16 8 -13 0 -58 18 -159 65 -25 12 -70 20
-145 26 -52 4 -98 47 -70 64 6 3 10 15 10 27 0 19 -4 19 -59 13 -38 -4 -61 -3
-65 4 -4 6 -7 42 -8 81 0 38 -4 70 -9 70 -11 0 -49 -41 -49 -53 0 -18 -28 14
-41 46 -22 58 -79 103 -79 63 0 -12 -6 -12 -29 -3 -44 16 -61 4 -61 -45 0 -46
-14 -109 -32 -146 -8 -16 -17 -21 -32 -16 -54 15 -111 73 -152 152 -19 37 -68
82 -90 82 -8 0 -24 -6 -35 -12 -17 -11 -23 -10 -26 0 -3 6 -9 9 -14 6 -27 -16
-119 77 -119 120 0 9 -10 18 -22 22 -13 3 -32 20 -44 37 -11 18 -26 31 -33 29
-8 -1 -10 4 -7 15 11 34 -7 42 -82 40 -40 -1 -72 1 -72 4 0 3 11 11 24 19 26
13 40 46 25 56 -13 8 -120 2 -151 -8z"/>
<path d="M14386 1194 c-15 -21 -16 -28 -5 -35 18 -11 39 8 39 37 0 31 -10 30
-34 -2z"/>
<path d="M16610 1185 c0 -8 4 -15 10 -15 5 0 7 7 4 15 -4 8 -8 15 -10 15 -2 0
-4 -7 -4 -15z"/>
<path d="M16707 1173 c-20 -25 -22 -37 -6 -27 6 3 15 1 19 -6 4 -7 13 -9 19
-5 9 5 9 10 0 21 -6 8 -8 15 -3 15 5 1 15 2 23 3 8 0 16 6 18 13 8 22 -53 10
-70 -14z"/>
<path d="M16300 1120 c-12 -8 -10 -10 8 -10 13 0 20 4 17 10 -7 12 -6 12 -25
0z"/>
<path d="M16368 1093 c18 -3 36 -11 39 -19 6 -16 33 -19 33 -4 0 6 -7 10 -15
10 -8 0 -15 5 -15 10 0 6 -17 9 -37 8 l-38 -1 33 -4z"/>
<path d="M14867 1043 c-25 -24 7 -79 62 -108 l29 -15 -15 30 c-8 17 -19 30
-24 30 -5 0 -15 16 -23 35 -16 37 -18 39 -29 28z"/>
<path d="M16600 1020 c0 -14 7 -20 21 -20 15 0 19 4 15 16 -3 9 -6 18 -6 20 0
2 -7 4 -15 4 -8 0 -15 -9 -15 -20z"/>
<path d="M4262 998 c3 -7 13 -15 24 -17 16 -3 17 -1 5 13 -16 19 -34 21 -29 4z"/>
<path d="M14571 994 c0 -11 3 -14 6 -6 3 7 2 16 -1 19 -3 4 -6 -2 -5 -13z"/>
<path d="M16263 982 c-29 -4 -29 -17 -2 -35 17 -13 19 -18 8 -34 -9 -16 -8
-25 4 -49 9 -16 16 -23 17 -16 0 6 6 12 14 12 18 0 40 53 32 78 -9 27 -45 48
-73 44z"/>
<path d="M4297 963 c-12 -12 -7 -41 7 -46 17 -7 25 10 18 36 -5 18 -14 22 -25
10z"/>
<path d="M4200 916 c0 -14 5 -28 10 -31 6 -4 10 7 10 24 0 17 -4 31 -10 31 -5
0 -10 -11 -10 -24z"/>
<path d="M4170 895 c0 -8 5 -15 10 -15 6 0 10 7 10 15 0 8 -4 15 -10 15 -5 0
-10 -7 -10 -15z"/>
<path d="M15520 886 c0 -2 7 -6 15 -10 8 -3 15 -1 15 4 0 6 -7 10 -15 10 -8 0
-15 -2 -15 -4z"/>
<path d="M14815 810 c3 -5 27 -10 53 -10 34 0 43 3 32 10 -20 13 -93 13 -85 0z"/>
<path d="M14720 735 c0 -8 8 -22 18 -31 71 -65 108 -94 122 -94 9 0 21 -5 28
-12 6 -6 15 -8 19 -4 7 7 -11 24 -101 99 -19 15 -39 27 -45 27 -6 0 -11 7 -11
15 0 8 -7 15 -15 15 -8 0 -15 -7 -15 -15z"/>
<path d="M11 721 c-7 -13 -11 -140 -11 -370 l0 -351 590 0 c387 0 590 3 590
10 0 6 -4 10 -9 10 -5 0 -17 8 -27 18 -10 9 -20 17 -23 18 -3 0 -13 3 -21 6
-32 13 -60 16 -60 7 0 -12 -57 -11 -65 1 -4 6 -10 8 -15 5 -5 -3 -19 0 -31 7
-17 10 -23 10 -26 1 -6 -18 -28 -16 -48 3 -15 15 -17 15 -34 0 -19 -17 -81
-22 -81 -6 0 13 -97 13 -105 0 -8 -13 -75 -13 -75 0 0 6 5 10 12 10 6 0 8 3 4
8 -8 7 -13 8 -42 11 -13 1 -15 10 -12 40 3 34 0 42 -22 54 -22 13 -30 13 -59
1 -18 -8 -37 -11 -42 -8 -5 3 -9 -4 -9 -15 0 -14 -6 -21 -19 -21 -14 0 -18 -5
-14 -20 4 -14 0 -20 -11 -20 -10 0 -16 9 -16 23 -1 20 -2 20 -11 5 -5 -10 -22
-18 -36 -18 -22 0 -24 3 -19 25 4 14 2 25 -4 25 -5 0 -10 -10 -11 -22 0 -13
-3 -18 -5 -11 -3 7 -11 10 -18 7 -8 -3 -13 9 -15 37 -1 24 -4 46 -7 51 -3 4 6
19 20 32 14 13 26 28 26 34 0 6 14 13 30 17 32 7 40 32 14 42 -8 3 -13 12 -10
19 5 13 -17 19 -51 15 -8 -1 -10 5 -7 14 3 8 1 15 -5 15 -19 0 -12 17 10 23
12 3 20 12 18 19 -3 7 12 31 33 53 28 30 38 35 38 22 0 -15 3 -16 23 -6 l22
12 -28 8 c-31 8 -53 3 -77 -17 -9 -7 -38 -16 -64 -18 -55 -5 -53 -4 -58 -31
-6 -36 -58 -63 -58 -30 0 8 -6 15 -12 15 -10 0 -9 3 1 9 8 5 11 16 7 29 -4 11
-2 23 4 27 5 3 10 13 10 21 0 9 -5 12 -11 8 -9 -5 -10 3 -5 30 4 23 3 36 -4
36 -5 0 -10 9 -10 20 0 11 -5 20 -11 20 -6 0 -8 8 -4 19 3 10 -1 23 -9 30 -12
10 -17 8 -25 -8z m95 -304 c25 -22 26 -25 13 -60 -13 -38 -29 -49 -29 -21 0 8
-4 12 -10 9 -5 -3 -10 -2 -10 3 0 5 9 12 20 15 11 3 20 13 20 22 0 9 -6 15
-12 12 -7 -2 -18 3 -25 12 -28 37 -7 42 33 8z m34 -106 c0 -16 -41 -24 -54
-11 -8 8 -7 10 5 5 10 -4 20 -2 24 4 8 13 25 14 25 2z"/>
<path d="M13888 623 c-8 -31 2 -46 18 -26 7 10 14 24 14 31 0 19 -27 14 -32
-5z"/>
<path d="M15991 604 c0 -11 3 -14 6 -6 3 7 2 16 -1 19 -3 4 -6 -2 -5 -13z"/>
<path d="M12970 591 c0 -13 29 -35 37 -28 7 8 -15 37 -28 37 -5 0 -9 -4 -9 -9z"/>
<path d="M15955 590 c-3 -5 1 -10 10 -10 9 0 13 5 10 10 -3 6 -8 10 -10 10 -2
0 -7 -4 -10 -10z"/>
<path d="M9588 503 c2 -38 8 -72 13 -78 6 -6 8 -1 5 15 -2 14 -5 49 -5 78 -1
28 -4 52 -8 52 -5 0 -7 -30 -5 -67z"/>
<path d="M12906 455 c3 -22 7 -49 8 -60 1 -18 8 -21 34 -16 16 2 0 58 -25 87
l-24 29 7 -40z"/>
<path d="M13140 450 c0 -5 -7 -10 -15 -10 -9 0 -30 -8 -48 -17 -18 -9 -35 -16
-39 -15 -5 1 -8 -14 -8 -33 0 -38 33 -70 67 -63 14 3 17 12 14 50 -2 41 1 49
23 63 26 18 34 35 16 35 -5 0 -10 -4 -10 -10z"/>
<path d="M323 363 c2 -16 11 -29 20 -31 19 -4 22 11 7 39 -16 28 -31 23 -27
-8z"/>
<path d="M12820 350 c0 -5 5 -10 11 -10 5 0 7 5 4 10 -3 6 -8 10 -11 10 -2 0
-4 -4 -4 -10z"/>
<path d="M13175 329 c-20 -5 -6 -7 43 -8 39 0 72 2 72 7 0 9 -74 10 -115 1z"/>
<path d="M12951 307 c-14 -14 -14 -37 0 -37 13 0 50 20 65 35 9 8 3 11 -21 12
-18 1 -38 -4 -44 -10z"/>
<path d="M10710 88 c0 -12 7 -31 15 -42 13 -17 14 -15 12 20 -3 41 -27 62 -27
22z"/>
<path d="M12655 89 c-4 -6 -14 -8 -23 -4 -8 3 -18 2 -21 -3 -3 -5 -40 -25 -81
-45 l-75 -36 75 0 75 -1 50 50 c42 43 46 50 28 50 -12 0 -25 -5 -28 -11z"/>
<path d="M1330 39 c0 -11 5 -17 10 -14 6 3 10 13 10 21 0 8 -4 14 -10 14 -5 0
-10 -9 -10 -21z"/>
<path d="M2923 48 c-19 -24 -23 -48 -9 -48 8 0 17 12 20 26 8 31 3 40 -11 22z"/>
<path d="M9705 50 c3 -5 18 -10 33 -9 24 0 25 1 7 9 -28 12 -47 12 -40 0z"/>
<path d="M14545 30 c3 -5 8 -10 11 -10 2 0 4 5 4 10 0 6 -5 10 -11 10 -5 0 -7
-4 -4 -10z"/>
<path d="M1235 20 c-4 -6 -13 -9 -21 -6 -8 3 -14 1 -14 -4 0 -6 16 -10 36 -10
23 0 34 4 32 12 -6 17 -25 21 -33 8z"/>
<path d="M9166 13 c-6 -14 -5 -15 5 -6 7 7 10 15 7 18 -3 3 -9 -2 -12 -12z"/>
<path d="M14590 15 c17 -20 50 -19 50 1 0 13 -3 14 -14 5 -10 -8 -16 -9 -21
-1 -3 5 -11 10 -17 10 -7 0 -6 -6 2 -15z"/>
<path d="M1355 10 c-3 -5 -1 -10 4 -10 6 0 11 5 11 10 0 6 -2 10 -4 10 -3 0
-8 -4 -11 -10z"/>
</g>
</svg>
